<?xml version='1.0' encoding='UTF-8'?>
<svg xmlns="http://www.w3.org/2000/svg" font-family="ConsolasFallback,Consolas,monospace" width="1150px" height="550px" font-size="16px">
<style>
@font-face {
src: local('Consolas'), local('Consolas Bold');
font-family: 'ConsolasFallback';
font-display: swap;
-webkit-size-adjust: 109%;
size-adjust: 109%;
}
.key {fill: #953800;}
.value {fill: #0a3069;}
.addColor {fill: #1a7f37;}
.delColor {fill: #cf222e;}
.cc {fill: #c2cfde;}
text, tspan {white-space: pre;}
.cursor { animation: blink 1s step-end infinite; }
@keyframes blink { 0%, 100% { opacity: 1; } 50% { opacity: 0; } }
@keyframes fadeIn { from { opacity: 0; } to { opacity: 1; } }
text { animation: fadeIn 1.2s ease-in-out forwards; }
</style>
<rect width="1150px" height="550px" fill="#f6f8fa" rx="15"/>
<svg xmlns="http://www.w3.org/2000/svg" version="1.0" x="25" y="65" width="400px" height="400px" viewBox="0 0 460.000000 460.000000" preserveAspectRatio="xMidYMid meet"> <g transform="translate(0.000000,460.000000) scale(0.100000,-0.100000)" fill="#24292f" stroke="none"> <path d="M2353 4165 c-34 -6 -74 -17 -90 -23 -15 -6 -60 -13 -99 -15 -39 -3 -88 -12 -109 -21 -35 -15 -111 -76 -160 -129 -137 -148 -147 -167 -153 -294 l-4 -93 -589 0 c-361 1 -596 -3 -607 -9 -43 -23 -43 -2 -40 -1149 l3 -1094 27 -23 27 -23 -24 -16 c-13 -9 -28 -16 -32 -17 -4 0 -18 -13 -30 -28 -20 -26 -202 -340 -298 -516 -21 -38 -54 -95 -72 -125 -29 -49 -33 -63 -33 -127 0 -84 11 -113 50 -136 26 -16 190 -17 2175 -17 1894 0 2149 2 2175 15 39 20 46 37 55 122 6 67 5 77 -18 115 -42 72 -69 120 -103 183 -18 33 -88 157 -156 275 -118 205 -148 244 -201 263 -8 3 -4 12 10 26 13 12 25 32 27 44 3 12 7 503 10 1091 5 1128 6 1098 -37 1135 -12 9 -137 12 -530 11 l-514 0 -7 62 c-29 250 -221 464 -462 512 -92 18 -105 18 -191 1z m205 -38 c22 -19 67 -33 58 -18 -5 8 0 8 16 2 47 -19 78 -36 78 -43 0 -5 5 -8 10 -8 12 0 22 -8 78 -60 42 -40 92 -104 92 -119 0 -5 6 -16 13 -23 42 -43 85 -205 78 -295 -1 -18 1 -33 6 -33 8 0 9 -132 0 -147 -7 -12 22 -115 41 -143 22 -34 24 -53 5 -46 -9 4 -23 1 -31 -6 -13 -11 -15 -11 -8 2 4 8 1 7 -7 -3 -17 -20 -14 -127 4 -174 6 -15 12 -35 14 -43 2 -8 15 -46 29 -85 26 -72 38 -154 13 -90 -14 35 -36 68 -54 78 -7 4 -1 -17 13 -48 47 -101 42 -221 -10 -262 -12 -10 -23 -21 -23 -26 -1 -4 -3 -11 -6 -15 -2 -4 -2 -2 -1 5 4 17 -13 26 -19 11 -2 -7 -7 -11 -10 -8 -4 3 0 18 8 33 8 15 11 27 7 27 -4 0 -2 4 4 8 19 13 33 91 22 123 -5 16 -14 29 -18 29 -5 0 -11 14 -15 31 -4 17 -9 28 -12 25 -3 -2 3 -28 12 -56 17 -51 14 -109 -8 -160 -22 -50 -25 -68 -14 -79 8 -8 8 -11 -1 -11 -6 0 -16 8 -21 18 -6 9 -11 12 -11 6 0 -5 5 -15 11 -21 8 -8 7 -16 -2 -31 -13 -20 -13 -20 -49 5 l-35 26 27 29 c15 16 28 40 30 54 2 13 8 23 13 22 6 -2 9 -16 7 -32 -2 -18 0 -26 7 -22 6 4 10 30 9 57 0 28 -4 46 -8 39 -4 -6 -5 12 -2 42 4 50 -8 63 -15 15 -9 -56 -62 -184 -81 -192 -7 -2 -10 0 -7 5 3 6 2 10 -3 10 -5 0 -6 15 -3 33 4 31 5 31 12 7 6 -21 7 -18 7 15 1 22 -3 58 -7 80 l-9 40 -1 -45 c-1 -25 -4 -62 -8 -83 -6 -42 -1 -41 -83 -19 -19 6 -30 10 -25 11 6 1 3 6 -5 11 -13 8 -13 10 2 10 18 0 62 119 73 195 3 28 -2 17 -19 -35 -14 -41 -25 -68 -26 -60 0 8 -9 -4 -20 -28 -11 -24 -19 -47 -17 -52 1 -4 -2 -8 -7 -8 -5 0 -12 -6 -16 -12 -10 -17 -31 -3 -23 15 3 8 2 15 -1 15 -4 0 -11 -12 -17 -26 -8 -22 -6 -29 10 -40 10 -8 28 -31 39 -53 20 -38 20 -39 2 -44 -11 -3 -24 1 -31 9 -6 8 -14 14 -18 14 -4 0 -15 -51 -24 -112 -10 -62 -20 -124 -24 -137 -4 -17 -3 -22 5 -17 7 4 12 18 12 32 0 23 8 28 40 25 13 -2 13 0 1 8 -8 5 -20 7 -26 5 -9 -4 -8 9 3 48 8 29 14 70 13 91 -1 28 2 37 11 31 7 -4 27 -7 45 -6 23 2 31 -1 29 -10 -3 -7 -12 -44 -21 -83 -41 -170 -138 -412 -155 -385 -6 9 -10 8 -17 -5 -23 -41 -22 10 1 87 52 171 94 421 83 498 -3 23 -1 38 4 34 20 -12 8 9 -15 27 -22 17 -24 23 -14 49 5 17 16 30 24 30 8 0 19 9 26 19 10 16 15 18 27 8 12 -9 13 -9 7 0 -4 8 5 26 23 45 17 18 31 39 31 46 0 7 4 11 8 8 5 -3 9 0 9 7 1 12 51 149 56 152 1 1 23 9 50 19 26 10 47 21 47 25 0 3 13 21 30 39 16 18 29 34 28 35 -1 1 4 18 12 37 7 19 14 40 15 45 0 6 3 15 7 20 4 6 3 17 -2 25 -5 8 -4 22 2 34 10 18 12 18 39 -14 16 -18 29 -28 29 -23 0 6 -11 22 -25 37 -14 15 -24 30 -23 34 1 4 -2 14 -5 22 -3 8 -8 24 -11 35 -3 11 -4 1 -3 -22 2 -40 1 -41 -16 -26 -18 17 -40 81 -56 164 l-9 44 -1 -58 c-1 -43 5 -70 24 -106 13 -27 21 -52 17 -56 -4 -5 -2 -6 3 -2 18 10 38 -9 28 -26 -7 -14 -12 -13 -39 11 -34 31 -56 39 -48 17 4 -8 2 -15 -3 -15 -6 0 -15 -10 -21 -22 -11 -20 -12 -17 -9 22 4 50 -16 125 -42 154 -15 18 -15 18 7 7 12 -6 22 -16 22 -22 0 -5 12 -22 26 -37 l26 -27 -12 25 c-7 14 -23 39 -36 56 -12 17 -26 44 -29 60 -5 27 -5 28 5 5 6 -13 13 -21 16 -18 3 3 1 14 -5 25 -17 31 -25 128 -12 136 6 4 9 2 6 -7 -3 -7 -2 -24 3 -38 9 -24 9 -23 17 9 9 43 -3 160 -19 191 -13 23 -13 23 -19 2 -3 -11 -1 -19 4 -15 5 3 9 -7 10 -23 0 -15 2 -41 3 -58 1 -16 -4 -40 -11 -52 -16 -24 -19 -66 -8 -103 5 -19 4 -22 -4 -14 -6 6 -14 35 -18 65 -6 47 -7 51 -14 26 -6 -24 -6 -97 1 -132 1 -6 2 -21 1 -35 -2 -24 -2 -24 -13 -5 -7 11 -15 75 -19 141 -5 77 -13 133 -23 151 -23 45 -77 88 -130 104 -25 7 -46 17 -46 21 0 4 24 6 54 5 33 -2 52 1 49 7 -4 5 1 7 11 3 10 -4 15 -3 11 3 -3 5 -23 15 -45 21 -30 9 -49 9 -85 -1 -25 -7 -45 -17 -45 -22 0 -5 -4 -6 -10 -3 -5 3 -10 1 -10 -4 0 -15 4 -14 47 9 40 21 75 24 108 10 14 -7 9 -8 -18 -4 -30 5 -45 1 -75 -19 -20 -14 -49 -31 -64 -38 -16 -7 -28 -16 -28 -21 0 -12 22 -5 44 15 24 21 34 21 102 1 34 -10 65 -27 84 -47 29 -31 33 -51 6 -28 -8 6 -63 14 -127 17 -153 7 -159 7 -183 30 -37 36 -58 66 -50 73 10 7 18 71 9 71 -3 0 -12 -14 -19 -32 -14 -32 -7 -85 10 -81 5 1 15 -10 21 -24 10 -21 10 -24 -3 -19 -9 3 -22 6 -30 6 -8 0 -14 8 -14 18 0 14 -2 15 -10 2 -8 -13 -10 -13 -10 1 0 9 -7 30 -15 45 -44 85 46 183 187 205 102 17 198 8 198 -17 0 -9 -4 -12 -10 -9 -5 3 -19 8 -31 10 -11 2 -29 7 -40 10 -10 4 -19 2 -19 -4 0 -6 12 -13 28 -17 54 -12 122 -36 127 -45 4 -5 16 -14 28 -20 21 -11 21 -10 -2 15 -14 14 -19 26 -12 26 9 0 8 5 -3 15 -8 9 -13 22 -10 30 4 8 1 15 -6 15 -6 0 -9 4 -6 9 3 5 -1 11 -9 15 -20 7 -19 -3 3 -27 16 -20 16 -20 -3 -12 -85 34 -100 36 -204 30 -126 -8 -160 -17 -192 -52 -23 -25 -23 -25 26 5 27 17 53 28 58 25 5 -3 -5 -12 -23 -20 -18 -7 -46 -27 -62 -43 -49 -52 -60 -102 -33 -154 8 -15 15 -31 15 -35 0 -3 -24 -7 -52 -7 -82 -2 -117 -8 -110 -18 3 -5 -2 -7 -12 -3 -9 4 -15 3 -12 -2 7 -11 -22 -23 -36 -14 -7 3 -8 1 -4 -5 4 -7 3 -12 -3 -12 -5 0 -12 -13 -16 -29 -8 -37 -28 -45 -50 -21 -15 17 -15 19 2 24 10 3 28 24 41 46 l23 40 -25 10 c-28 10 -66 9 -66 -2 0 -4 -4 -8 -10 -8 -21 0 -9 20 15 26 14 3 25 10 25 16 0 14 -41 -2 -64 -26 -32 -32 -56 -69 -56 -86 0 -8 9 -1 19 16 21 34 64 54 118 54 l33 0 -26 -40 c-19 -29 -35 -41 -60 -46 -37 -7 -37 -24 1 -24 40 0 37 -15 -11 -69 -36 -40 -41 -49 -23 -42 13 4 32 23 42 42 28 50 41 60 33 24 -9 -40 -14 -67 -15 -83 -1 -7 -5 -11 -11 -7 -5 3 -7 13 -4 23 5 14 4 15 -5 2 -7 -10 -6 -19 4 -30 9 -9 11 -20 6 -26 -14 -16 -42 -97 -50 -149 -7 -47 -8 -48 -15 -20 -11 46 -21 60 -45 63 -64 10 -101 -106 -65 -208 9 -25 20 -50 26 -57 5 -7 6 -18 2 -24 -4 -8 -3 -9 4 -5 11 7 55 -28 46 -37 -3 -2 10 -3 28 -1 18 1 28 1 22 -2 -7 -3 -8 -28 -3 -76 5 -39 6 -75 3 -79 -2 -4 0 -10 6 -14 6 -4 8 -10 5 -15 -3 -4 2 -13 10 -20 8 -7 12 -16 9 -21 -3 -5 0 -9 7 -9 7 0 9 -3 6 -6 -4 -4 3 -15 15 -25 11 -11 17 -19 11 -19 -5 0 -10 -7 -10 -15 0 -8 4 -12 9 -9 4 3 32 -19 60 -48 29 -28 47 -49 41 -44 -8 4 -13 2 -13 -5 0 -7 -3 -9 -6 -6 -4 4 -19 -2 -33 -11 -14 -10 -38 -19 -53 -20 -22 -1 -28 3 -29 21 -1 12 -5 4 -8 -18 -5 -34 -10 -40 -34 -43 -15 -2 -25 -7 -22 -12 3 -4 -3 -6 -14 -3 -10 3 -22 0 -25 -6 -4 -6 -14 -11 -22 -11 -8 0 -12 5 -9 10 3 6 -6 15 -21 20 -21 8 -25 15 -20 33 3 12 6 33 7 47 l0 25 11 -25 c31 -75 39 -92 44 -87 3 3 -1 18 -9 34 -9 15 -22 53 -30 83 -11 37 -16 46 -16 28 -1 -15 -5 -29 -9 -32 -12 -7 -14 -85 -3 -124 13 -43 -4 -41 -20 3 -8 21 -18 34 -26 31 -7 -3 -15 0 -19 6 -4 7 -3 8 4 4 7 -4 12 -3 12 3 0 5 3 18 6 28 5 15 4 15 -5 3 -8 -11 -11 9 -11 78 0 65 3 91 11 86 8 -4 8 0 0 15 -10 18 -9 21 6 21 15 0 15 2 4 9 -13 8 -45 -12 -46 -28 0 -3 -13 -24 -28 -46 -30 -45 -46 -105 -28 -105 6 0 11 7 11 15 0 20 38 95 48 95 4 0 7 -31 6 -69 0 -53 -5 -74 -21 -95 -25 -31 -34 -32 -50 -6 -9 14 -10 21 -1 26 7 5 8 3 3 -6 -5 -8 -4 -11 3 -6 15 9 4 36 -12 30 -10 -4 -12 6 -9 35 5 56 37 122 74 159 17 17 25 29 18 28 -39 -8 -83 -37 -74 -50 3 -3 2 -4 -2 -1 -8 6 -33 -14 -33 -27 0 -6 7 -5 15 2 13 11 13 8 4 -19 -13 -37 -21 -34 -26 9 -4 45 17 87 76 153 29 31 49 57 45 57 -4 0 -3 5 4 12 7 7 12 20 12 31 0 15 -4 13 -25 -11 -27 -32 -32 -48 -12 -36 8 5 7 2 -2 -10 -10 -12 -16 -14 -21 -5 -9 14 -30 3 -29 -14 0 -9 2 -8 6 1 2 6 9 9 14 6 6 -4 6 -11 -2 -20 -9 -11 -14 -11 -33 3 l-23 17 31 21 c51 33 74 96 80 216 2 57 9 118 14 135 11 34 41 96 51 104 15 12 33 92 41 185 4 55 13 114 20 130 6 17 11 32 10 33 -5 10 59 65 88 78 19 8 31 18 27 24 -5 8 -12 7 -23 -2 -16 -12 -16 -11 -2 6 8 10 32 29 52 42 31 20 46 23 80 18 22 -4 49 -15 59 -25 12 -12 19 -14 22 -6 2 7 10 0 17 -15 7 -16 17 -28 22 -28 13 0 9 16 -7 30 -12 10 -13 15 -4 21 15 9 -27 33 -46 25 -9 -3 -12 0 -9 8 6 16 -14 33 -46 38 -25 4 -25 4 7 21 18 10 34 17 35 16 2 0 16 5 32 11 17 6 55 10 85 9 37 -1 79 7 126 23 82 29 213 32 243 5z m-546 -109 c-12 -12 -35 -1 -27 12 3 5 13 6 21 3 10 -4 12 -9 6 -15z m638 18 c0 -2 -7 -7 -16 -10 -8 -3 -12 -2 -9 4 6 10 25 14 25 6z m-585 -24 c-3 -3 -11 0 -18 7 -9 10 -8 11 6 5 10 -3 15 -9 12 -12z m602 2 c-3 -3 -12 -4 -19 -1 -8 3 -5 6 6 6 11 1 17 -2 13 -5z m-437 -234 c36 -19 184 -40 288 -40 140 0 138 3 157 -185 7 -67 35 -138 67 -172 29 -31 39 -29 23 5 -15 29 -18 142 -3 120 4 -7 5 -26 2 -41 -4 -18 2 -48 17 -84 21 -52 22 -62 12 -162 -7 -80 -19 -132 -47 -211 -21 -58 -45 -125 -53 -150 -25 -70 -127 -157 -283 -240 -67 -36 -178 -35 -238 1 -55 33 -177 151 -211 204 -49 77 -53 91 -68 235 -19 195 -12 296 33 427 19 55 34 111 34 123 0 12 8 34 19 48 10 15 21 36 25 48 16 51 173 103 226 74z m458 -75 c-3 -3 -9 2 -12 12 -6 14 -5 15 5 6 7 -7 10 -15 7 -18z m1364 -165 c20 -25 20 -30 14 -940 -3 -503 -6 -990 -6 -1082 0 -219 9 -208 -175 -208 -140 0 -142 1 -136 42 1 10 -532 9 -548 -2 -8 -4 -11 -15 -8 -24 6 -15 -72 -16 -893 -16 -876 0 -900 0 -900 19 0 10 -7 22 -16 25 -9 3 -126 6 -260 6 l-245 0 -23 -25 c-23 -24 -27 -25 -153 -25 -122 0 -131 1 -150 22 -20 23 -21 33 -27 1106 l-6 1082 24 25 25 25 581 0 581 0 -7 -22 c-3 -13 -24 -56 -45 -97 l-39 -73 -117 1 -116 2 -60 42 c-174 122 -149 111 -264 113 -56 2 -103 1 -103 0 0 -2 27 -20 60 -40 33 -20 65 -42 72 -49 7 -7 30 -23 51 -36 20 -12 37 -26 37 -30 0 -4 -21 -5 -47 -1 -38 5 -70 22 -154 81 l-105 74 -147 -2 c-166 -2 -182 -5 -191 -36 -3 -12 -5 -501 -5 -1087 1 -586 4 -1051 8 -1035 4 17 7 39 6 50 0 11 7 23 15 27 12 5 11 7 -5 8 -14 2 -11 5 10 10 28 7 28 8 5 9 l-26 1 -2 946 c-2 625 1 944 7 940 6 -4 8 -14 5 -24 -5 -14 -4 -14 4 -2 8 10 8 18 0 27 -16 20 -14 113 3 124 8 5 10 9 4 10 -5 0 -1 4 10 9 23 10 275 13 299 4 9 -3 13 -10 10 -15 -3 -5 3 -6 12 -2 12 4 15 3 10 -5 -4 -7 -1 -12 9 -12 20 0 81 -49 77 -62 -2 -8 12 -12 34 -9 6 1 17 -6 24 -14 12 -14 -10 -16 -219 -14 -176 1 -236 -2 -244 -11 -9 -10 -9 -11 2 -5 9 5 12 4 7 -3 -8 -13 -13 -992 -5 -986 3 2 7 -209 8 -468 1 -259 4 -474 6 -478 3 -5 0 -10 -7 -12 -7 -3 -5 -7 6 -11 10 -4 15 -3 11 3 -4 7 102 10 323 8 182 -2 329 -1 327 2 -2 3 87 5 196 5 173 0 199 -2 194 -15 -4 -13 -3 -13 7 0 13 16 84 27 75 13 -3 -5 41 -7 96 -6 292 7 864 7 854 0 -8 -6 -6 -7 5 -3 10 3 298 6 640 6 373 1 630 5 640 11 10 5 18 16 18 24 0 8 8 16 18 16 16 1 16 2 -1 6 -17 4 -17 36 -14 597 2 326 7 598 11 604 4 7 2 12 -5 12 -8 0 -10 47 -6 188 3 103 8 198 11 212 5 18 4 20 -2 6 -5 -11 -8 39 -8 122 1 88 -3 145 -10 152 -11 11 -965 16 -984 5 -5 -3 -8 27 -7 77 2 46 0 92 -4 103 -7 20 -3 20 508 15 l515 -5 20 -25z m-2856 -36 c10 -9 14 -13 8 -10 -6 3 -11 -1 -11 -9 0 -10 4 -12 12 -5 14 11 45 3 45 -11 0 -5 6 -9 13 -9 16 0 48 -36 39 -45 -4 -3 0 -4 8 -1 8 3 25 -2 38 -12 23 -18 22 -18 -45 -17 -53 0 -76 5 -106 23 -20 13 -34 28 -31 34 4 7 2 8 -5 4 -6 -4 -28 5 -49 22 -20 16 -45 33 -56 39 -14 8 -1 10 51 11 50 1 75 -3 89 -14z m631 -114 c2 -17 -1 -19 -20 -9 -18 10 -17 6 7 -20 27 -28 30 -38 37 -138 4 -59 6 -109 4 -111 -8 -9 -58 55 -76 96 -23 53 -25 132 -4 172 18 34 50 40 52 10z m2172 -985 l-4 -965 -1688 0 c-1123 0 -1686 3 -1682 10 4 7 573 10 1676 10 l1669 0 0 313 c1 171 2 348 4 392 2 44 4 333 5 643 1 415 4 562 12 562 9 0 11 -243 8 -965z m-2367 848 c-2 -60 -8 -123 -13 -140 -13 -41 -51 -72 -101 -79 -21 -4 -38 -10 -38 -14 0 -11 44 -38 74 -46 23 -5 24 -8 10 -21 -31 -31 -48 -78 -47 -131 1 -29 6 -59 11 -65 5 -7 12 -34 15 -61 5 -53 28 -91 73 -120 l29 -19 -35 -36 c-21 -22 -47 -67 -64 -111 -16 -41 -32 -79 -36 -85 -13 -17 -100 -244 -136 -355 -34 -105 -34 -106 -34 -297 l0 -193 -350 0 c-192 0 -350 1 -350 3 0 1 -3 424 -7 940 l-6 937 504 0 505 0 -4 -107z m2328 -833 l0 -940 -651 0 -652 0 5 128 c3 70 12 154 21 187 27 102 55 228 62 278 4 26 9 47 12 47 3 0 17 -8 31 -19 36 -25 172 -92 252 -124 36 -14 84 -35 107 -47 50 -24 78 -25 124 -6 69 29 88 66 174 351 20 66 45 148 56 183 24 79 24 86 -3 105 l-23 15 30 11 c17 7 51 34 76 60 32 35 58 53 90 61 66 18 99 38 99 61 0 27 -22 33 -83 21 -29 -6 -53 -9 -55 -7 -1 1 24 20 57 41 33 21 62 45 65 52 8 19 -12 52 -30 52 -15 0 -101 -44 -119 -61 -5 -5 -12 -9 -17 -9 -4 0 15 30 43 67 57 77 63 116 18 121 -21 2 -33 -6 -60 -40 -19 -24 -40 -50 -46 -58 -7 -8 -19 -24 -27 -35 -10 -14 -9 3 6 68 23 96 16 137 -21 137 -23 0 -38 -17 -46 -55 -20 -88 -61 -195 -75 -195 -4 0 -15 16 -24 35 -32 67 -87 95 -116 61 -9 -12 -7 -21 11 -45 15 -20 24 -51 29 -103 4 -40 17 -97 28 -126 22 -56 21 -58 -27 -64 -26 -3 -26 -3 -109 -239 l-27 -77 -60 37 c-123 76 -160 102 -160 114 0 7 21 26 48 42 57 36 97 107 97 173 0 24 5 63 11 86 10 39 7 54 -30 162 -22 66 -45 147 -49 182 l-9 62 34 0 c29 0 66 12 82 27 3 2 -10 16 -27 31 -19 15 -41 50 -52 80 l-20 52 475 0 475 0 0 -940z m-1057 825 c22 -23 24 -29 15 -68 -12 -57 -56 -127 -97 -154 -19 -13 -38 -23 -42 -23 -5 0 3 31 16 69 14 38 25 77 25 87 1 23 24 56 33 47 11 -10 8 -71 -4 -78 -6 -4 -8 -14 -5 -22 3 -8 -6 -25 -22 -40 -22 -21 -23 -24 -5 -14 26 13 42 40 36 59 -3 7 1 11 8 10 16 -4 13 80 -3 100 -8 9 -6 12 5 12 9 0 19 5 23 12 5 7 0 9 -14 6 -15 -4 -19 -2 -15 8 7 20 17 18 46 -11z m617 -160 c0 -2 -10 -48 -21 -101 -26 -117 -17 -136 35 -81 19 21 48 56 63 79 28 41 63 62 63 38 0 -7 -27 -49 -60 -95 -33 -46 -60 -88 -60 -94 0 -13 37 -15 45 -2 3 6 18 16 33 24 15 7 44 24 65 36 38 21 67 20 48 -2 -5 -7 -43 -35 -85 -62 -104 -69 -93 -85 37 -56 98 21 92 -5 -7 -34 -46 -13 -70 -28 -109 -66 -75 -74 -93 -82 -155 -62 -50 16 -51 17 -82 97 -24 59 -31 90 -27 118 4 28 -1 51 -19 86 -28 56 -28 52 -10 52 14 0 75 -69 72 -82 0 -3 11 -19 26 -36 39 -44 51 -71 44 -103 -7 -35 9 -39 18 -4 6 25 -14 87 -31 98 -6 4 5 35 23 72 19 37 39 93 46 126 9 46 16 59 30 59 10 0 18 -2 18 -5z m-977 -425 c-6 -24 -23 -37 -23 -18 0 12 18 38 26 38 1 0 0 -9 -3 -20z m-461 -22 c-5 -5 -23 -10 -41 -10 -17 -1 -31 -4 -31 -9 0 -16 142 -96 238 -133 96 -38 130 -59 79 -49 -20 4 -25 -3 -47 -61 -15 -39 -30 -64 -37 -62 -40 15 -96 62 -124 103 -18 26 -59 81 -92 121 -59 71 -59 73 -42 92 23 26 75 41 93 27 8 -6 9 -14 4 -19z m-432 7 c-11 -13 -9 -21 8 -45 24 -32 27 -40 13 -40 -5 0 -16 16 -26 36 -13 28 -14 38 -5 50 7 8 15 14 17 14 3 0 0 -7 -7 -15z m326 -72 c29 -39 30 -48 3 -66 -28 -20 -58 -10 -65 22 -3 14 -8 32 -10 40 -2 8 3 22 12 32 9 10 13 23 8 30 -4 8 -3 10 4 5 7 -4 13 -1 13 6 1 7 4 2 6 -12 3 -14 16 -39 29 -57z m560 26 c16 -15 21 -33 23 -82 2 -54 -3 -72 -35 -136 l-37 -74 -22 39 c-43 73 -65 95 -89 88 -11 -3 6 13 39 36 100 70 132 123 78 128 -31 2 -37 7 -28 22 9 14 44 3 71 -21z m-362 -9 c68 -35 127 -39 204 -14 43 14 56 15 82 4 16 -7 30 -15 30 -19 0 -11 -62 -67 -97 -87 -26 -14 -36 -16 -55 -6 -13 6 -54 23 -91 37 -38 13 -96 39 -129 57 l-59 31 28 13 c15 7 28 13 28 13 0 0 27 -13 59 -29z m1222 0 c23 -7 54 -22 69 -34 l28 -22 -62 -205 c-103 -341 -112 -360 -183 -380 -38 -10 -48 -8 -124 25 -46 20 -87 36 -91 36 -9 0 -95 42 -103 50 -4 4 -106 58 -161 85 -13 6 -19 19 -18 35 4 68 -2 150 -11 150 -5 0 -10 -26 -10 -57 0 -58 -1 -58 -18 -35 -12 15 -24 21 -35 16 -22 -8 -22 4 3 94 22 80 25 122 9 122 -5 0 -15 14 -20 30 -6 17 -15 30 -21 30 -5 0 -7 4 -4 9 3 5 -2 12 -11 15 -15 6 -15 8 -3 16 23 15 30 12 30 -11 0 -11 5 -17 10 -14 6 3 10 2 10 -4 0 -6 17 -13 38 -16 20 -4 49 -15 64 -26 15 -10 31 -19 36 -19 5 0 34 -18 66 -40 31 -22 61 -40 66 -40 6 0 10 -4 10 -9 0 -5 10 -13 21 -16 18 -6 133 -76 146 -89 2 -1 -4 -25 -12 -52 -17 -56 -19 -102 -5 -124 7 -11 10 -5 10 23 0 21 6 50 14 65 7 15 17 43 21 62 4 19 17 58 30 85 12 28 37 93 55 145 18 52 37 99 41 104 4 5 19 9 33 9 16 0 23 4 19 11 -5 8 -3 8 8 0 8 -7 33 -17 55 -24z m-1501 -56 c6 -52 29 -94 88 -164 52 -62 106 -143 101 -152 -4 -6 -3 -8 3 -5 6 4 25 -15 44 -41 38 -54 38 -53 81 -108 18 -22 46 -61 62 -87 17 -26 34 -47 38 -47 4 0 8 -5 8 -12 0 -6 11 -26 24 -43 19 -25 22 -35 13 -44 -9 -10 -9 -12 3 -9 19 4 25 -35 9 -64 -18 -32 -19 -44 -9 -102 5 -28 12 -78 15 -110 3 -33 8 -63 10 -67 3 -4 -56 -8 -130 -8 -97 -1 -135 1 -135 10 0 8 -4 8 -12 2 -7 -5 -85 -10 -173 -10 l-160 -1 0 141 c0 78 -6 162 -12 187 -7 25 -15 61 -18 80 -3 19 -8 43 -11 53 -3 9 3 29 14 45 23 31 83 160 101 214 7 21 9 43 5 50 -4 7 -3 10 1 5 14 -13 46 71 43 111 -3 30 -5 33 -12 17 -4 -11 -12 -29 -17 -40 -23 -52 -42 -113 -43 -137 0 -14 -3 -25 -6 -23 -3 2 -14 -16 -24 -38 -54 -120 -113 -221 -156 -272 -15 -17 -19 -50 -24 -190 -4 -93 -9 -177 -11 -185 -4 -12 -25 -15 -117 -14 l-113 2 -3 192 c-2 184 -1 195 24 273 15 45 30 87 34 92 4 6 11 24 15 42 6 29 48 136 88 223 9 19 30 69 48 110 17 41 42 85 55 97 24 22 92 47 159 59 22 4 47 10 55 15 30 17 38 8 45 -47z m830 6 c3 -6 -1 -7 -9 -4 -18 7 -21 14 -7 14 6 0 13 -4 16 -10z m-684 -42 c10 -13 40 -56 65 -95 25 -40 50 -70 55 -67 5 3 26 -7 46 -21 21 -14 41 -25 45 -25 4 0 15 19 25 42 l19 41 16 -25 c13 -20 14 -33 6 -71 -5 -26 -8 -85 -6 -132 2 -47 2 -85 1 -85 -2 0 -24 42 -49 93 -26 50 -58 112 -72 136 -24 41 -26 43 -34 21 -5 -13 -4 -27 2 -35 5 -6 6 -16 2 -21 -4 -4 2 -2 12 6 18 14 19 13 13 -3 -4 -10 -3 -16 2 -13 12 8 84 -142 75 -156 -4 -7 -3 -8 4 -4 8 5 28 -25 56 -83 25 -50 43 -91 40 -91 -2 0 5 -16 16 -35 24 -42 24 -42 6 -42 -8 0 -12 5 -10 11 2 6 -23 48 -56 94 -33 46 -60 87 -60 91 0 4 -8 16 -18 27 -9 10 -25 30 -35 44 -10 14 -30 41 -45 61 -155 206 -216 287 -228 302 -7 9 -13 18 -11 18 1 1 15 3 31 5 16 2 36 10 45 19 19 19 19 19 42 -7z m369 -103 c21 -25 0 -57 -38 -60 -27 -2 -35 2 -47 26 -8 15 -15 33 -15 39 0 16 86 12 100 -5z m129 -81 c-6 -32 -22 -108 -37 -169 l-26 -109 -13 79 c-8 44 -21 110 -29 147 -10 45 -12 73 -6 85 8 14 13 10 32 -27 l22 -43 19 29 c11 16 25 40 30 53 16 39 20 18 8 -45z m-151 8 c17 -11 28 -55 53 -198 22 -129 20 -145 -22 -237 l-12 -27 -14 32 c-8 18 -23 50 -34 70 -10 20 -19 42 -19 47 0 15 30 14 31 -1 0 -10 2 -10 6 0 2 6 9 12 14 12 6 0 8 -4 5 -8 -2 -4 4 -8 14 -8 11 0 22 6 24 13 4 10 -9 13 -49 13 -29 0 -57 5 -60 10 -4 6 17 10 54 10 61 0 73 7 47 29 -11 9 -15 9 -18 -1 -3 -7 -22 -13 -43 -15 l-38 -2 6 126 c3 90 9 128 18 134 17 11 21 11 37 1z m-208 -43 c0 -6 -4 -7 -10 -4 -5 3 -10 11 -10 16 0 6 5 7 10 4 6 -3 10 -11 10 -16z m530 -64 c0 -10 -11 -15 -35 -15 -33 0 -43 8 -28 23 13 14 63 7 63 -8z m5 -129 c-9 -57 -27 -146 -41 -198 -34 -126 -34 -121 -41 -228 -3 -52 -11 -98 -17 -102 -8 -5 -7 -8 2 -8 6 0 12 -7 12 -15 0 -10 -10 -15 -30 -15 -16 0 -30 5 -30 10 0 6 7 10 16 10 8 0 13 4 9 10 -9 15 -35 0 -35 -21 0 -15 7 -19 34 -19 27 0 34 -4 32 -17 -3 -16 -16 -18 -114 -18 l-110 0 -11 75 c-27 189 -28 173 15 224 20 25 42 42 48 39 6 -3 8 -3 4 2 -7 8 8 40 49 102 12 18 23 30 25 26 3 -5 3 -2 1 6 -2 7 6 29 18 48 12 19 36 69 54 111 31 74 33 77 63 74 17 -2 36 3 43 11 21 23 22 5 4 -107z m-254 -177 c-12 -17 -21 -32 -19 -35 2 -2 17 17 33 41 15 25 30 43 32 41 9 -8 -59 -106 -69 -99 -7 3 -8 1 -4 -5 6 -11 -33 -76 -41 -68 -2 2 9 32 25 67 16 35 33 75 37 88 5 17 10 20 18 12 8 -8 5 -19 -12 -42z m-714 -276 l6 -153 -61 0 c-61 0 -61 0 -57 28 2 15 7 90 10 166 5 127 7 143 31 184 l27 45 19 -59 c14 -42 21 -102 25 -211z m-367 -323 l0 -29 -260 -3 -260 -3 0 26 c0 14 3 29 7 32 3 4 120 7 260 7 l253 0 0 -30z m2350 11 c24 -46 25 -46 -250 -46 -167 0 -260 4 -260 10 0 6 -3 20 -6 33 l-6 22 255 0 c243 0 257 -1 267 -19z m-2886 -46 c5 -13 45 -15 276 -15 233 0 270 2 270 15 0 13 107 15 905 15 798 0 905 -2 905 -15 0 -13 37 -15 275 -15 238 0 275 2 275 15 0 21 155 20 235 0 85 -22 116 -51 182 -167 32 -57 63 -112 70 -123 7 -11 16 -27 20 -35 4 -8 60 -109 125 -223 l119 -209 -4 -70 c-4 -55 -10 -75 -26 -92 l-22 -21 -2132 -3 c-1172 -1 -2142 0 -2155 3 -39 10 -62 41 -62 87 0 40 0 41 20 23 28 -26 25 -11 -5 21 -14 15 -25 31 -25 37 0 8 241 440 289 517 8 14 28 50 44 80 68 128 89 148 188 174 76 20 225 21 233 1z"/> <path d="M2470 4115 c-24 -14 -23 -15 20 -9 53 8 78 24 35 24 -17 -1 -41 -7 -55 -15z"/> <path d="M2180 4081 c0 -5 -3 -18 -6 -28 -5 -16 -4 -16 10 1 18 23 20 36 6 36 -5 0 -10 -4 -10 -9z"/> <path d="M2235 4065 c-36 -37 -31 -44 7 -9 18 16 35 30 37 32 2 1 -1 2 -7 2 -6 0 -23 -11 -37 -25z"/> <path d="M2047 4058 c-8 -5 -6 -8 7 -8 11 0 29 -8 40 -17 19 -16 19 -16 7 -1 -7 9 -10 21 -8 25 7 11 -30 11 -46 1z"/> <path d="M2135 4034 c14 -14 29 -23 32 -20 9 8 -27 46 -44 46 -9 0 -4 -10 12 -26z"/> <path d="M2684 4049 c-4 -7 -3 -9 4 -5 5 3 13 0 15 -6 4 -9 6 -10 6 -1 1 17 -16 25 -25 12z"/> <path d="M2495 4010 c14 -6 16 -9 5 -10 -8 -2 -18 -2 -21 -2 -12 2 -42 -38 -35 -45 4 -4 10 -3 14 3 11 17 68 44 92 44 12 0 18 5 15 10 -3 6 -25 10 -48 9 -33 0 -38 -2 -22 -9z"/> <path d="M2577 3980 c13 -5 34 -11 48 -13 13 -1 27 -6 31 -10 4 -4 14 -7 23 -6 28 1 -63 38 -94 38 -28 0 -28 -1 -8 -9z"/> <path d="M2028 3973 c7 -3 16 -2 19 1 4 3 -2 6 -13 5 -11 0 -14 -3 -6 -6z"/> <path d="M2480 3951 c-19 -10 -34 -22 -33 -27 3 -16 -20 -35 -34 -30 -8 3 -12 2 -9 -3 3 -5 -1 -12 -10 -15 -16 -6 -49 -74 -40 -83 12 -12 36 8 36 30 0 46 88 107 154 107 47 0 142 -46 167 -81 11 -15 26 -45 34 -66 l15 -38 -6 35 c-10 54 -21 77 -51 108 -31 33 -107 75 -117 65 -3 -4 -6 -2 -6 3 0 18 -64 15 -100 -5z"/> <path d="M1936 3950 c-28 -5 -28 -5 -8 -23 15 -14 29 -17 56 -12 42 8 126 -27 133 -56 3 -10 11 -15 18 -13 11 4 10 10 -3 25 -9 10 -22 19 -30 19 -7 0 -12 6 -11 13 1 6 1 17 0 24 -1 13 -53 33 -85 33 -17 0 -18 -2 -6 -10 12 -8 11 -10 -7 -10 -12 0 -23 4 -25 8 -1 4 -16 5 -32 2z"/> <path d="M2730 3946 c0 -2 15 -20 33 -39 45 -49 57 -65 57 -77 0 -6 5 -8 12 -4 7 5 9 2 6 -7 -3 -8 -2 -23 2 -34 8 -19 8 -19 17 4 l10 25 7 -25 c5 -13 12 -60 16 -104 l8 -80 -2 85 c-3 95 -28 172 -52 163 -8 -3 -14 0 -14 6 0 6 5 11 11 11 5 0 7 5 3 11 -5 8 -8 8 -13 0 -5 -7 -21 3 -43 29 -31 34 -58 51 -58 36z"/> <path d="M2814 3929 c-3 -6 -1 -16 5 -22 9 -9 10 -7 5 7 -6 15 -4 17 6 11 9 -5 11 -4 6 3 -9 15 -13 15 -22 1z"/> <path d="M1905 3900 c-3 -6 1 -7 9 -4 18 7 21 14 7 14 -6 0 -13 -4 -16 -10z"/> <path d="M2851 3905 c2 -6 17 -37 33 -69 24 -47 31 -76 34 -142 3 -46 9 -84 14 -84 6 0 9 24 6 59 -2 33 -1 58 3 55 14 -8 -50 136 -72 164 -12 15 -20 22 -18 17z"/> <path d="M1950 3890 c-19 -4 -27 -8 -17 -9 9 0 17 -5 17 -10 0 -5 19 -8 43 -8 25 1 60 -7 85 -19 23 -12 42 -20 42 -19 0 12 -65 65 -78 65 -9 0 -26 2 -37 4 -11 2 -36 0 -55 -4z"/> <path d="M2821 3763 c12 -29 24 -51 28 -49 3 2 6 -8 7 -22 1 -92 6 -126 14 -107 10 24 12 120 4 164 -7 34 -24 33 -24 -2 0 -17 -2 -19 -9 -7 -6 8 -17 -6 20 2 3 -5 17 -16 30 -18 23 -17 21 2 -27z"/> <path d="M2825 3555 c-3 -26 -3 -60 0 -77 6 -23 4 -29 -5 -23 -9 5 -11 4 -6 -4 10 -15 27 -3 25 17 -4 49 2 91 14 88 6 -1 9 -1 5 1 -5 3 -8 13 -8 24 0 37 -18 18 -25 -26z"/> <path d="M1865 3551 c-6 -5 -19 -11 -30 -13 -19 -5 -19 -5 -1 -13 13 -6 22 -3 30 7 6 8 18 17 26 21 13 5 13 6 0 6 -9 1 -20 -3 -25 -8z"/> <path d="M1762 3474 c-65 -68 -74 -126 -46 -304 16 -99 15 -104 -12 -175 -6 -17 -4 -17 14 4 31 34 37 83 18 144 -16 53 -29 237 -14 214 5 -7 8 1 8 21 0 18 4 31 9 27 9 -5 27 32 23 47 -1 4 7 10 18 13 11 4 20 12 20 20 0 7 8 16 18 18 14 4 14 5 -3 5 -11 0 -35 -15 -53 -34z"/> <path d="M1769 3103 c6 -12 11 -41 11 -65 1 -31 3 -39 10 -27 10 18 -3 86 -20 103 -10 8 -10 6 -1 -11z"/> <path d="M2957 3073 c-4 -3 -7 -25 -7 -49 0 -23 -5 -44 -11 -46 -7 -2 -1 -16 15 -33 l26 -30 -11 32 c-6 18 -9 55 -7 83 1 27 3 50 2 50 0 0 -4 -3 -7 -7z"/> <path d="M1781 2974 c0 -12 -4 -37 -7 -55 l-6 -34 22 22 c17 16 21 25 13 35 -6 7 -13 22 -16 33 -4 19 -5 19 -6 -1z"/> <path d="M2910 2940 c0 -20 -2 -22 -11 -10 -8 11 -9 3 -4 -30 3 -25 11 -49 17 -55 7 -7 8 2 4 30 -5 29 -4 36 3 25 9 -12 11 -10 11 10 0 14 -5 32 -10 40 -8 12 -10 10 -10 -10z"/> <path d="M2839 2919 c-38 -48 -78 -122 -78 -146 -2 -40 16 -33 23 9 6 37 38 104 56 118 9 6 32 50 27 50 -2 0 -15 -14 -28 -31z"/> <path d="M1583 2905 l-22 -35 29 21 c16 12 26 28 23 35 -6 18 -4 19 -30 -21z"/> <path d="M1816 2903 c-8 -53 -8 -193 2 -193 4 0 7 52 8 115 1 63 0 115 -1 115 -1 0 -5 -17 -9 -37z"/> <path d="M2957 2848 c3 -13 12 -30 19 -39 8 -8 18 -39 24 -69 12 -66 25 -82 16 -20 -6 42 -49 150 -60 150 -2 0 -2 -10 1 -22z"/> <path d="M1715 2842 c-11 -7 -13 -17 -21 -66 -3 -24 -1 -22 9 10 8 23 17 46 21 53 8 13 5 14 -9 3z"/> <path d="M1726 2814 c-3 -9 -4 -19 -1 -22 3 -3 5 1 5 9 0 11 2 11 10 -1 5 -8 10 -10 10 -5 0 6 -4 16 -9 23 -6 11 -10 10 -15 -4z"/> <path d="M2908 2778 c-3 -15 -1 -25 3 -22 5 3 10 -25 11 -63 l2 -68 3 57 c2 31 0 71 -5 90 l-8 33 -6 -27z"/> <path d="M1710 2770 c0 -8 -3 -33 -5 -55 l-5 -40 14 45 c10 29 12 48 6 54 -7 7 -10 5 -10 -4z"/> <path d="M2831 2734 c0 -11 3 -14 6 -6 3 7 2 16 -1 19 -3 4 -6 -2 -5 -13z"/> <path d="M2655 2685 c-16 -30 -27 -57 -24 -60 3 -3 18 20 33 51 36 72 29 79 -9 9z"/> <path d="M1891 2714 c0 -11 3 -14 6 -6 3 7 2 16 -1 19 -3 4 -6 -2 -5 -13z"/> <path d="M2862 2695 c0 -16 2 -22 5 -12 2 9 2 23 0 30 -3 6 -5 -1 -5 -18z"/> <path d="M1860 2688 c-1 -22 -1 -23 -15 -4 -18 24 -20 7 -3 -29 17 -37 28 -31 28 15 0 22 -2 40 -5 40 -3 0 -5 -10 -5 -22z"/> <path d="M2817 2703 c-10 -9 -9 -25 1 -19 4 3 7 -14 6 -37 -2 -41 12 -34 16 8 5 48 -4 67 -23 48z"/> <path d="M2993 2643 c0 -24 5 -43 9 -43 10 0 9 27 -2 60 -7 21 -8 18 -7 -17z"/> <path d="M2031 3664 c0 -11 3 -14 6 -6 3 7 2 16 -1 19 -3 4 -6 -2 -5 -13z"/> <path d="M2070 3522 c-28 -4 -53 -24 -82 -65 -24 -34 -16 -47 13 -21 31 28 149 26 206 -4 53 -28 63 -28 63 2 0 29 -9 36 -80 63 -67 25 -87 30 -120 25z m90 -38 l25 -15 -25 7 c-14 4 -41 7 -62 8 -52 2 -57 13 -6 14 24 1 54 -6 68 -14z m74 -29 c11 -8 16 -15 10 -15 -5 0 -18 7 -28 15 -11 8 -16 15 -10 15 5 0 18 -7 28 -15z"/> <path d="M2510 3451 c-47 -9 -60 -18 -60 -42 0 -19 5 -19 74 -13 93 8 137 0 176 -33 17 -14 33 -23 36 -20 9 8 -46 96 -66 107 -21 11 -106 11 -160 1z m105 -21 c15 -5 9 -7 -21 -6 -23 0 -40 4 -37 9 5 9 32 8 58 -3z m41 -17 c-10 -10 -19 5 -10 18 6 11 8 11 12 0 2 -7 1 -15 -2 -18z m-136 7 c-20 -13 -33 -13 -25 0 3 6 14 10 23 10 15 0 15 -2 2 -10z"/> <path d="M1933 3435 c0 -8 4 -12 9 -9 5 3 6 10 3 15 -9 13 -12 11 -12 -6z"/> <path d="M2413 3415 c0 -8 4 -12 9 -9 5 3 6 10 3 15 -9 13 -12 11 -12 -6z"/> <path d="M1973 3385 c0 -8 4 -12 9 -9 5 3 6 10 3 15 -9 13 -12 11 -12 -6z"/> <path d="M2287 3385 c-8 -8 -18 -11 -23 -7 -5 4 -2 -1 5 -11 13 -16 26 -15 26 1 0 4 4 13 8 20 11 16 2 15 -16 -3z"/> <path d="M1997 3342 l-27 -28 30 -32 c23 -26 36 -32 70 -32 23 0 60 -5 84 -11 37 -9 48 -8 78 8 36 20 38 33 9 67 -15 18 -15 19 8 13 21 -5 23 -4 10 9 -17 17 -110 34 -185 34 -42 0 -55 -5 -77 -28z m83 -12 c-6 -11 -8 -30 -4 -44 5 -21 3 -23 -20 -19 -13 3 -32 14 -42 24 -22 24 -5 46 39 52 18 2 33 5 35 5 1 1 -2 -7 -8 -18z m93 -9 c2 -10 0 -26 -5 -35 -11 -20 -5 -31 12 -21 7 4 10 20 8 36 -6 37 15 39 39 3 16 -25 16 -27 -2 -40 -21 -15 -32 -16 -90 -6 -34 6 -40 11 -41 32 l-1 25 14 -22 c20 -30 41 -29 49 2 7 26 -5 50 -13 28 -6 -18 -30 -16 -37 2 -4 11 2 15 28 15 24 0 35 -5 39 -19z"/> <path d="M2305 3321 c-3 -5 -2 -12 3 -15 5 -3 9 1 9 9 0 17 -3 19 -12 6z"/> <path d="M2435 3310 c-6 -10 -4 -12 8 -7 14 5 13 0 -5 -24 l-22 -29 24 -24 c20 -19 40 -25 98 -30 40 -4 80 -10 88 -13 16 -6 84 36 84 53 0 30 -41 61 -87 68 -114 17 -180 19 -188 6z m85 -15 c0 -3 -5 -14 -12 -24 -12 -19 -5 -51 11 -51 5 0 7 10 5 23 -2 12 -1 15 2 7 10 -22 23 -28 46 -22 15 4 19 11 16 33 -4 26 -2 28 21 23 64 -15 90 -53 51 -74 -29 -15 -187 3 -208 24 -14 14 -14 18 8 41 20 22 60 35 60 20z m48 -17 c-3 -7 -11 -13 -18 -13 -7 0 -15 6 -17 13 -3 7 4 12 17 12 13 0 20 -5 18 -12z"/> <path d="M2602 3246 c-15 -33 -11 -44 7 -22 7 8 11 23 9 32 -2 14 -6 11 -16 -10z"/> <path d="M2396 3273 c-5 -27 -9 -99 -7 -135 1 -10 4 -18 9 -18 4 0 7 26 7 58 1 31 4 72 8 90 3 17 2 32 -2 32 -5 0 -12 -12 -15 -27z"/> <path d="M1939 3276 c6 -7 7 -17 3 -22 -4 -4 1 -2 11 5 19 15 16 24 -9 27 -11 2 -12 -1 -5 -10z"/> <path d="M2202 3058 c-7 -7 -12 -22 -12 -35 0 -18 12 -28 55 -48 65 -29 73 -30 103 -9 12 8 22 11 22 6 0 -15 42 -6 55 12 7 9 11 26 8 37 -9 33 -21 31 -19 -4 1 -29 -1 -32 -26 -29 -15 1 -41 -4 -56 -12 -28 -14 -31 -14 -53 10 -17 18 -30 23 -46 19 -28 -7 -42 18 -23 40 16 19 8 29 -8 13z"/> <path d="M2070 2916 c0 -8 3 -16 8 -18 4 -1 19 -21 34 -44 30 -47 72 -70 155 -85 65 -12 130 -6 172 16 40 20 94 76 84 86 -5 5 -35 4 -66 -1 -86 -14 -320 20 -351 51 -15 14 -36 11 -36 -5z m283 -64 c70 -2 127 -8 127 -13 0 -4 -17 -18 -37 -31 -55 -33 -179 -32 -249 3 -27 13 -48 30 -46 37 1 8 -2 11 -7 7 -9 -5 -31 23 -31 39 0 2 26 -5 58 -16 42 -15 91 -22 185 -26z"/> <path d="M2162 2844 c16 -16 122 -34 193 -32 l80 1 -90 7 c-50 4 -108 13 -130 19 -44 12 -61 14 -53 5z"/> <path d="M2515 2910 c-3 -6 1 -7 9 -4 18 7 21 14 7 14 -6 0 -13 -4 -16 -10z"/> <path d="M2530 2896 c0 -2 7 -7 16 -10 8 -3 12 -2 9 4 -6 10 -25 14 -25 6z"/> <path d="M2005 2841 c3 -2 -1 -11 -7 -20 -8 -10 -3 -8 12 4 14 11 27 21 29 22 2 1 -6 1 -17 0 -12 0 -19 -3 -17 -6z"/> <path d="M2020 2816 c0 -2 7 -9 15 -16 13 -11 14 -10 9 4 -5 14 -24 23 -24 12z"/> <path d="M2525 2809 c-4 -6 -5 -12 -2 -15 2 -3 7 2 10 11 7 17 1 20 -8 4z"/> <path d="M2078 2801 c17 -10 17 -21 0 -33 -11 -8 -11 -9 0 -6 8 2 14 8 14 13 0 6 4 15 8 20 6 7 1 11 -13 12 -15 2 -18 0 -9 -6z"/> <path d="M2530 2780 c-9 -6 -10 -10 -3 -10 6 0 15 5 18 10 8 12 4 12 -15 0z"/> <path d="M2150 2755 c-7 -9 -11 -17 -9 -20 3 -2 10 5 17 15 14 24 10 26 -8 5z"/> <path d="M2210 2742 c0 -22 111 -41 138 -23 9 5 -8 10 -46 14 -32 4 -66 9 -75 13 -9 3 -17 1 -17 -4z"/> <path d="M2195 2670 c-3 -6 1 -7 9 -4 18 7 21 14 7 14 -6 0 -13 -4 -16 -10z"/> <path d="M2395 2670 c-3 -5 -1 -11 4 -14 5 -4 12 -2 16 4 4 6 12 7 18 4 7 -4 8 -3 4 1 -11 12 -36 15 -42 5z"/> <path d="M3030 3531 c0 -16 55 -18 514 -17 358 1 460 4 463 14 4 9 -98 12 -486 12 -274 0 -491 -4 -491 -9z"/> <path d="M4015 3519 c-4 -11 -4 -23 -1 -26 3 -4 6 2 6 12 0 15 2 16 17 4 15 -13 15 -12 4 9 -15 27 -18 27 -26 1z"/> <path d="M4022 2980 c0 -14 2 -19 5 -12 2 6 2 18 0 25 -3 6 -5 1 -5 -13z"/> <path d="M830 1380 c-8 -15 -8 -18 3 -14 8 3 14 11 14 19 0 20 -4 19 -17 -5z"/> <path d="M1376 1387 c3 -10 9 -15 12 -12 3 3 0 11 -7 18 -10 9 -11 8 -5 -6z"/> <path d="M3198 1378 c5 -5 16 -8 23 -6 8 3 3 7 -10 11 -17 4 -21 3 -13 -5z"/> <path d="M1148 3503 c7 -3 16 -2 19 1 4 3 -2 6 -13 5 -11 0 -14 -3 -6 -6z"/> <path d="M1786 3345 c-3 -9 -6 -22 -5 -28 0 -7 5 -1 10 12 5 13 8 26 5 28 -2 2 -6 -3 -10 -12z"/> <path d="M1811 3322 c-12 -23 -12 -100 0 -108 5 -2 6 -11 3 -18 -3 -7 3 -19 12 -27 15 -12 17 -12 9 0 -4 8 -9 24 -10 35 -1 12 -5 32 -9 46 -4 14 -2 39 4 54 13 34 6 46 -9 18z"/> <path d="M1781 3274 c0 -11 3 -14 6 -6 3 7 2 16 -1 19 -3 4 -6 -2 -5 -13z"/> <path d="M1444 3036 c1 -8 5 -18 8 -22 4 -3 5 1 4 10 -1 8 -5 18 -8 22 -4 3 -5 -1 -4 -10z"/> <path d="M790 2939 c0 -5 5 -7 10 -4 6 3 10 8 10 11 0 2 -4 4 -10 4 -5 0 -10 -5 -10 -11z"/> <path d="M830 2940 c-8 -5 -10 -10 -5 -10 6 0 17 5 25 10 8 5 11 10 5 10 -5 0 -17 -5 -25 -10z"/> <path d="M846 2921 c-3 -5 -14 -8 -24 -6 -9 1 -11 0 -4 -2 6 -3 12 -9 12 -14 0 -17 18 -9 23 11 5 21 2 26 -7 11z"/> <path d="M713 2884 c-15 -15 -17 -34 -4 -34 8 0 24 41 18 46 -1 1 -8 -4 -14 -12z"/> <path d="M765 2890 c-3 -6 1 -7 9 -4 18 7 21 14 7 14 -6 0 -13 -4 -16 -10z"/> <path d="M739 2858 c-1 -7 -1 -16 0 -20 1 -8 -15 -12 -31 -9 -11 1 -10 -11 2 -29 8 -13 10 -12 10 3 0 9 6 17 14 17 7 0 16 11 18 25 3 14 1 25 -3 25 -5 0 -10 -6 -10 -12z"/> <path d="M895 2839 c-4 -6 -4 -13 -1 -16 3 -4 6 0 6 8 0 11 2 12 9 1 7 -11 9 -11 14 2 7 18 -18 23 -28 5z"/> <path d="M791 2814 c0 -11 3 -14 6 -6 3 7 2 16 -1 19 -3 4 -6 -2 -5 -13z"/> <path d="M740 2789 c0 -5 5 -7 10 -4 6 3 10 8 10 11 0 2 -4 4 -10 4 -5 0 -10 -5 -10 -11z"/> <path d="M885 2779 c-4 -6 -5 -12 -2 -15 2 -3 7 2 10 11 7 17 1 20 -8 4z"/> <path d="M1160 2680 c0 -5 5 -10 11 -10 5 0 7 5 4 10 -3 6 -8 10 -11 10 -2 0 -4 -4 -4 -10z"/> <path d="M948 2673 c7 -3 16 -2 19 1 4 3 -2 6 -13 5 -11 0 -14 -3 -6 -6z"/> <path d="M988 2653 c7 -3 16 -2 19 1 4 3 -2 6 -13 5 -11 0 -14 -3 -6 -6z"/> <path d="M1530 2546 c0 -2 8 -10 18 -17 15 -13 16 -12 3 4 -13 16 -21 21 -21 13z"/> <path d="M738 2363 c7 -3 16 -2 19 1 4 3 -2 6 -13 5 -11 0 -14 -3 -6 -6z"/> <path d="M880 2311 c0 -5 7 -12 16 -15 14 -5 15 -4 4 9 -14 17 -20 19 -20 6z"/> <path d="M991 2244 c0 -11 3 -14 6 -6 3 7 2 16 -1 19 -3 4 -6 -2 -5 -13z"/> <path d="M3579 3103 c-13 -16 -12 -17 4 -4 16 13 21 21 13 21 -2 0 -10 -8 -17 -17z"/> <path d="M3826 2827 c3 -10 9 -15 12 -12 3 3 0 11 -7 18 -10 9 -11 8 -5 -6z"/> <path d="M3809 2808 c-8 -27 -6 -38 5 -29 7 6 17 7 22 3 4 -4 2 1 -5 11 -12 16 -20 21 -22 15z"/> <path d="M3795 2729 c-4 -6 -5 -12 -2 -15 2 -3 7 2 10 11 7 17 1 20 -8 4z"/> <path d="M3816 2713 c-6 -14 -5 -15 5 -6 7 7 10 15 7 18 -3 3 -9 -2 -12 -12z"/> <path d="M3203 2665 c0 -8 4 -12 9 -9 5 3 6 10 3 15 -9 13 -12 11 -12 -6z"/> <path d="M3214 2638 l-19 -23 23 19 c21 18 27 26 19 26 -2 0 -12 -10 -23 -22z"/> <path d="M3056 2432 c-3 -5 1 -9 9 -9 8 0 15 4 15 9 0 4 -4 8 -9 8 -6 0 -12 -4 -15 -8z"/> <path d="M3496 2325 c-9 -26 -7 -32 5 -12 6 10 9 21 6 23 -2 3 -7 -2 -11 -11z"/> <path d="M3525 2320 c3 -5 8 -10 11 -10 2 0 4 5 4 10 0 6 -5 10 -11 10 -5 0 -7 -4 -4 -10z"/> <path d="M3555 2320 c-3 -5 -1 -10 4 -10 6 0 11 5 11 10 0 6 -2 10 -4 10 -3 0 -8 -4 -11 -10z"/> <path d="M3560 2293 c0 -5 5 -15 10 -23 8 -12 10 -11 10 8 0 12 -4 22 -10 22 -5 0 -10 -3 -10 -7z"/> <path d="M3476 2267 c3 -10 9 -15 12 -12 3 3 0 11 -7 18 -10 9 -11 8 -5 -6z"/> <path d="M3435 2111 c-3 -5 -1 -12 5 -16 5 -3 10 1 10 9 0 18 -6 21 -15 7z"/> <path d="M3808 1963 c12 -2 32 -2 45 0 12 2 2 4 -23 4 -25 0 -35 -2 -22 -4z"/> <path d="M3090 1906 c7 -7 13 -7 20 0 6 6 3 10 -10 10 -13 0 -16 -4 -10 -10z"/> <path d="M3339 1893 c-13 -16 -12 -17 4 -4 16 13 21 21 13 21 -2 0 -10 -8 -17 -17z"/> <path d="M3658 1879 c-10 -5 -18 -15 -18 -22 0 -8 3 -7 9 2 5 7 14 10 20 7 6 -4 11 0 11 8 0 19 0 18 -22 5z"/> <path d="M3703 1745 c-6 -19 -8 -35 -3 -35 8 0 23 60 17 67 -2 1 -8 -13 -14 -32z"/> <path d="M3720 1731 c0 -6 4 -13 10 -16 6 -3 7 1 4 9 -7 18 -14 21 -14 7z"/> <path d="M3368 1713 c7 -3 16 -2 19 1 4 3 -2 6 -13 5 -11 0 -14 -3 -6 -6z"/> <path d="M2888 3197 c-3 -19 -2 -25 4 -19 6 6 8 18 6 28 -3 14 -5 12 -10 -9z"/> <path d="M3476 2848 c3 -5 10 -6 15 -3 13 9 11 12 -6 12 -8 0 -12 -4 -9 -9z"/> <path d="M3491 2666 c-9 -11 -9 -16 1 -22 7 -4 10 -4 6 1 -4 4 -3 14 3 22 6 7 9 13 6 13 -2 0 -10 -6 -16 -14z"/> <path d="M3445 2651 c-3 -5 -2 -12 3 -15 5 -3 9 1 9 9 0 17 -3 19 -12 6z"/> <path d="M2173 2483 c4 -3 1 -13 -6 -22 -11 -14 -10 -14 5 -2 16 12 16 31 1 31 -4 0 -3 -3 0 -7z"/> <path d="M2190 2449 c0 -6 5 -7 10 -4 6 3 13 -1 16 -9 3 -9 14 -16 23 -16 14 1 14 2 -2 11 -9 6 -15 14 -13 18 3 4 -4 8 -15 8 -10 1 -19 -3 -19 -8z"/> <path d="M1952 2551 c-11 -6 -10 -10 4 -15 9 -3 19 -4 22 -1 3 3 0 5 -7 5 -7 0 -9 5 -6 10 7 12 4 12 -13 1z"/> <path d="M2485 2411 c-3 -5 -2 -12 3 -15 5 -3 9 1 9 9 0 17 -3 19 -12 6z"/> <path d="M2404 2542 c3 -5 0 -13 -6 -15 -9 -4 -10 -6 -1 -6 17 -1 25 16 12 25 -7 4 -9 3 -5 -4z"/> <path d="M3430 2536 c0 -2 7 -7 16 -10 8 -3 12 -2 9 4 -6 10 -25 14 -25 6z"/> <path d="M1910 1550 c0 -13 34 -30 57 -29 10 0 3 5 -16 11 -26 7 -31 12 -20 19 11 7 11 9 -3 9 -10 0 -18 -4 -18 -10z"/> <path d="M1978 1553 c17 -2 47 -2 65 0 17 2 3 4 -33 4 -36 0 -50 -2 -32 -4z"/> <path d="M2100 1549 c-23 -6 -22 -7 8 -8 17 -1 32 -5 32 -11 0 -5 -8 -9 -17 -8 -10 1 -45 0 -78 -2 l-60 -3 75 -7 c80 -7 88 -4 94 26 4 21 -11 25 -54 13z"/> <path d="M2000 2490 c-7 -14 -8 -20 -1 -16 6 4 18 -3 28 -15 10 -13 30 -35 45 -51 14 -15 24 -28 21 -28 -3 0 1 -8 8 -17 12 -15 12 -16 -5 -10 -16 6 -17 5 -6 -8 10 -11 15 -13 20 -4 10 16 20 -3 15 -30 -4 -23 10 -29 18 -7 5 12 -63 126 -111 185 l-20 24 -12 -23z"/> <path d="M2176 2222 c-3 -5 1 -9 9 -9 8 0 12 4 9 9 -3 4 -7 8 -9 8 -2 0 -6 -4 -9 -8z"/> <path d="M2366 2297 c3 -10 9 -15 12 -12 3 3 0 11 -7 18 -10 9 -11 8 -5 -6z"/> <path d="M2376 2243 c4 -16 13 -39 21 -53 8 -14 11 -16 7 -5 -4 11 -9 35 -12 53 -2 17 -8 32 -13 32 -5 0 -6 -12 -3 -27z"/> <path d="M2386 1980 c5 -8 9 -18 9 -22 0 -3 3 -9 7 -13 3 -4 5 0 4 9 -1 9 -8 22 -16 29 -10 10 -11 9 -4 -3z"/> <path d="M2615 2069 c-4 -6 -5 -12 -2 -15 2 -3 7 2 10 11 7 17 1 20 -8 4z"/> <path d="M2456 1773 c-6 -14 -5 -15 5 -6 7 7 10 15 7 18 -3 3 -9 -2 -12 -12z"/> <path d="M2395 1739 c-4 -6 -5 -12 -2 -15 2 -3 7 2 10 11 7 17 1 20 -8 4z"/> <path d="M2411 1722 c-17 -32 -11 -35 19 -10 14 11 20 17 13 14 -6 -3 -13 0 -15 6 -3 8 -9 4 -17 -10z"/> <path d="M910 1300 c-20 -4 33 -7 130 -8 96 0 155 3 140 8 -31 10 -223 10 -270 0z"/> <path d="M1240 1300 c-10 -7 5 -10 49 -10 35 0 62 2 60 4 -11 9 -96 14 -109 6z"/> <path d="M3246 1302 c-2 -4 103 -7 234 -7 131 0 233 3 227 8 -15 9 -455 8 -461 -1z"/> <path d="M806 1248 c3 -4 11 -5 19 -1 21 7 19 12 -4 10 -11 0 -18 -5 -15 -9z"/> <path d="M635 1237 c-48 -19 -70 -39 -96 -87 -14 -25 -36 -63 -50 -85 -55 -86 -102 -182 -96 -198 2 -7 7 3 11 21 4 17 11 32 16 32 4 0 13 13 20 30 7 16 16 27 21 24 5 -3 6 2 2 11 -3 10 -2 20 3 24 13 9 84 127 84 140 0 6 5 11 12 11 6 0 9 3 5 6 -12 13 57 59 73 49 6 -4 13 1 16 9 3 9 10 16 16 16 5 0 6 -5 2 -11 -4 -8 0 -8 15 0 11 7 21 14 21 16 0 9 -44 4 -75 -8z"/> <path d="M4020 1231 c0 -5 9 -13 20 -16 11 -3 20 -12 20 -19 0 -13 55 -121 92 -181 10 -16 27 -50 39 -75 13 -26 23 -39 26 -31 3 7 2 16 -3 20 -5 3 -26 40 -47 81 -95 185 -110 211 -128 220 -12 7 -19 7 -19 1z"/> <path d="M696 1202 c-21 -41 -176 -382 -176 -387 0 -3 799 -5 1775 -5 976 0 1775 2 1775 5 0 4 -21 50 -115 250 -21 44 -46 99 -56 122 l-18 42 -1585 0 -1586 0 -14 -27z m175 -5 c-6 -8 -8 -17 -4 -20 3 -4 -33 -7 -80 -7 -48 0 -87 2 -87 4 0 30 15 36 97 36 70 0 83 -2 74 -13z m220 0 c-6 -8 -8 -17 -4 -20 3 -4 -42 -7 -100 -7 -59 0 -107 2 -107 4 0 32 15 36 117 36 87 0 104 -2 94 -13z m219 9 c0 -31 -15 -36 -111 -36 -54 0 -99 2 -99 4 0 31 15 36 111 36 54 0 99 -2 99 -4z m220 0 c0 -32 -15 -36 -116 -36 -102 0 -104 1 -94 20 10 18 21 20 110 20 55 0 100 -2 100 -4z m210 0 c0 -31 -15 -36 -111 -36 -54 0 -99 2 -99 4 0 31 15 36 111 36 54 0 99 -2 99 -4z m220 -16 c0 -19 -7 -20 -109 -20 -104 0 -109 1 -104 20 5 18 14 20 109 20 97 0 104 -1 104 -20z m217 0 c-1 -19 -8 -20 -104 -20 -96 0 -103 1 -103 20 0 19 7 20 104 20 99 0 105 -1 103 -20z m223 0 c0 -19 -7 -20 -105 -20 -98 0 -105 1 -105 20 0 19 7 20 105 20 98 0 105 -1 105 -20z m218 -2 c3 -16 -7 -18 -102 -18 -100 0 -106 1 -106 20 0 20 5 21 102 18 89 -3 103 -5 106 -20z m212 18 c0 -2 3 -11 6 -20 5 -14 -7 -16 -100 -16 -99 0 -106 1 -106 20 0 19 7 20 100 20 55 0 100 -2 100 -4z m223 -16 c5 -19 0 -20 -98 -20 -94 0 -103 2 -108 20 -5 19 0 20 98 20 94 0 103 -2 108 -20z m207 16 c0 -2 3 -11 6 -20 5 -14 -7 -16 -95 -16 -56 0 -101 2 -101 4 0 2 -3 11 -6 20 -5 14 7 16 95 16 56 0 101 -2 101 -4z m220 0 c0 -2 3 -11 6 -20 5 -14 -7 -16 -99 -16 -96 0 -105 2 -110 20 -5 19 0 20 99 20 57 0 104 -2 104 -4z m220 0 c0 -2 3 -11 6 -20 5 -14 -7 -16 -99 -16 -96 0 -105 2 -110 20 -5 19 0 20 99 20 57 0 104 -2 104 -4z m180 0 c0 -2 3 -11 6 -20 5 -14 -6 -16 -80 -16 -47 0 -86 2 -86 4 0 2 -3 11 -6 20 -5 14 6 16 80 16 47 0 86 -2 86 -4z m-2921 -76 l-11 -30 -144 0 -145 0 16 30 16 30 139 0 139 0 -10 -30z m667 14 c-3 -9 -6 -22 -6 -30 0 -11 -22 -14 -109 -14 l-108 0 3 28 4 27 -11 -27 -11 -28 -104 0 -104 0 5 28 5 27 -11 -27 -11 -28 -104 0 c-57 0 -104 2 -104 4 0 3 4 16 10 30 l9 25 327 0 c291 0 325 -1 320 -15z m224 2 c0 -43 -9 -46 -116 -46 -108 0 -114 3 -98 44 9 22 214 24 214 2z m440 -16 l0 -30 -111 0 c-106 0 -111 1 -106 20 3 11 1 20 -4 20 -5 0 -9 -9 -9 -20 0 -19 -7 -20 -106 -20 -93 0 -105 2 -100 16 3 9 6 22 6 30 0 11 38 14 215 14 l215 0 0 -30z m444 8 c3 -13 6 -26 6 -30 0 -5 -47 -8 -105 -8 l-105 0 0 26 c0 14 -4 23 -9 20 -5 -3 -7 -15 -4 -26 5 -19 0 -20 -106 -20 l-111 0 0 30 0 30 214 0 c213 0 214 0 220 -22z m226 -8 l0 -30 -105 0 c-84 0 -105 3 -105 14 0 8 -3 21 -6 30 -5 14 8 16 105 16 l111 0 0 -30z m221 -2 l7 -28 -109 0 -109 0 0 30 0 31 102 -3 c101 -3 102 -3 109 -30z m218 2 c8 -25 7 -30 -5 -30 -9 0 -12 5 -8 13 6 10 4 10 -7 0 -8 -8 -43 -13 -95 -13 -65 0 -83 3 -88 16 -16 41 -10 44 93 44 l99 0 11 -30z m219 1 l11 -30 -104 0 -103 -1 -11 30 -10 30 104 0 103 0 10 -29z m294 -1 l17 -30 -143 0 c-117 0 -145 3 -149 15 -5 12 14 14 123 12 72 -1 130 1 130 6 0 4 -58 7 -129 7 -76 0 -132 4 -136 10 -4 6 42 10 132 10 l138 0 17 -30z m-2905 -75 l-12 -36 -183 -2 c-100 -1 -182 2 -182 6 0 4 7 21 15 37 l16 30 179 0 179 0 -12 -35z m239 19 c-3 -9 -9 -26 -11 -37 -6 -21 -12 -22 -115 -22 -61 0 -110 2 -110 4 0 3 5 20 12 38 l12 33 109 0 c96 0 108 -2 103 -16z m227 -16 c-3 -18 -6 -34 -7 -35 -1 0 -52 -3 -114 -5 -91 -2 -111 0 -107 10 3 8 8 25 11 38 6 24 8 24 115 24 l109 0 -7 -32z m239 2 c-2 -17 -8 -33 -13 -36 -5 -3 -57 -6 -114 -7 -113 -2 -113 -2 -99 51 6 21 11 22 118 22 l113 0 -5 -30z m231 -2 c-3 -18 -6 -34 -7 -35 -1 -1 -50 -3 -109 -5 -104 -3 -107 -2 -107 19 0 51 5 53 121 53 l109 0 -7 -32z m227 -2 l0 -35 -111 -3 c-106 -3 -110 -2 -105 17 3 11 6 28 6 38 0 15 12 17 105 17 l105 0 0 -34z m703 2 c2 -18 4 -34 3 -35 -6 -7 -209 -4 -216 3 -5 5 -10 20 -13 34 -3 19 -5 17 -6 -10 l-1 -35 -110 3 -110 3 0 30 c0 17 -4 28 -9 25 -4 -3 -6 -16 -4 -30 5 -23 3 -24 -59 -28 -34 -1 -84 -2 -109 0 -43 3 -47 5 -51 33 -3 16 -2 31 0 34 3 3 157 5 343 5 l337 0 5 -32z m227 23 c0 -5 3 -21 6 -37 l6 -29 -111 3 c-100 3 -111 5 -111 22 0 10 -3 25 -6 34 -5 14 8 16 105 16 61 0 111 -4 111 -9z m234 -13 c14 -53 14 -53 -104 -50 -99 3 -110 5 -110 22 0 10 -3 25 -6 34 -5 14 8 16 104 16 105 0 110 -1 116 -22z m231 -8 c8 -16 15 -33 15 -37 0 -4 -33 -7 -72 -6 -40 1 -89 2 -110 2 -31 1 -38 5 -47 32 -6 18 -11 34 -11 35 0 2 47 4 105 4 l104 0 16 -30z m379 -2 c9 -17 16 -34 16 -37 0 -3 -83 -5 -184 -3 -163 3 -184 5 -189 20 -3 9 -8 25 -12 35 -7 16 5 17 173 17 l181 0 15 -32z m-2837 -93 c-6 -20 -17 -35 -26 -35 -85 -2 -456 2 -459 4 -2 2 2 13 9 25 13 19 22 20 233 21 121 0 222 2 224 5 3 3 -98 5 -224 5 l-229 0 -16 -32 c-23 -48 -41 -47 -21 1 l17 41 252 0 251 0 -11 -35z m239 13 c-3 -13 -6 -28 -6 -35 0 -8 -35 -13 -115 -15 -63 -2 -115 0 -115 3 0 3 5 20 11 38 l11 31 110 0 c110 0 110 0 104 -22z m240 0 c-3 -13 -6 -30 -6 -38 0 -12 -20 -15 -115 -15 l-115 0 6 30 c3 17 8 33 11 38 2 4 54 7 115 7 110 0 110 0 104 -22z m234 -7 c-4 -16 -6 -32 -3 -35 3 -2 -47 -6 -111 -8 -113 -3 -117 -2 -112 17 3 11 6 28 6 38 0 15 12 17 114 17 l115 0 -9 -29z m246 13 c-3 -9 -6 -24 -6 -34 0 -17 -11 -19 -115 -22 -112 -3 -115 -2 -115 19 0 51 4 53 127 53 101 0 114 -2 109 -16z m224 -19 l0 -35 -110 0 c-116 0 -116 0 -104 48 6 21 11 22 110 22 l104 0 0 -35z m464 13 c14 -54 15 -53 -109 -50 l-115 3 0 30 c0 16 -4 29 -10 29 -5 0 -7 -13 -3 -30 l6 -30 -112 0 -111 0 0 35 0 35 224 0 c224 0 224 0 230 -22z m240 0 c14 -54 15 -53 -108 -50 l-114 3 -4 35 -4 34 112 0 c107 0 112 -1 118 -22z m235 -9 c6 -18 11 -35 11 -38 0 -3 -52 -5 -116 -3 l-116 3 5 25 c2 13 0 24 -4 24 -5 0 -9 5 -9 10 0 6 43 10 109 10 l109 0 11 -31z m239 -2 c7 -18 12 -35 12 -38 0 -2 -33 -3 -72 -2 -40 1 -91 2 -114 3 -38 0 -41 3 -51 35 l-11 35 112 0 112 0 12 -33z m211 2 c6 -18 11 -35 11 -38 0 -3 -45 -5 -100 -3 -55 2 -100 4 -100 5 0 1 -4 17 -9 35 l-10 32 99 0 98 0 11 -31z m309 -2 c7 -18 12 -35 12 -38 0 -2 -67 -3 -149 -1 -130 3 -150 5 -154 20 -3 9 -8 25 -12 35 -7 16 4 17 142 17 l149 0 12 -33z m-3194 -101 l-19 -46 -102 0 c-101 0 -115 4 -91 28 9 9 9 12 1 12 -7 0 -15 -9 -18 -20 -3 -11 -11 -20 -17 -20 -6 0 -7 8 -3 18 4 9 11 29 17 44 l10 27 116 3 c65 2 119 2 121 1 2 -1 -5 -22 -15 -47z m244 0 l-12 -46 -119 0 c-110 0 -119 1 -112 18 4 9 11 29 17 44 10 27 10 27 121 30 62 2 113 2 115 2 1 -1 -3 -22 -10 -48z m488 21 c-3 -12 -6 -32 -6 -44 0 -23 -2 -23 -116 -23 l-116 0 6 43 c4 30 3 36 -3 22 -5 -11 -10 -30 -10 -42 -1 -23 -3 -23 -121 -23 -66 0 -120 4 -120 9 0 5 7 25 15 44 l15 36 118 3 c64 2 168 2 230 0 112 -3 114 -4 108 -25z m1378 -8 c3 -17 6 -38 6 -45 0 -12 -109 -14 -675 -14 -593 0 -675 2 -675 15 0 8 4 15 8 15 4 0 8 9 9 20 3 34 -16 22 -23 -15 -3 -19 -10 -35 -15 -35 -12 0 -11 15 2 59 l11 36 673 -3 673 -2 6 -31z m223 -14 l10 -43 -102 -1 -102 -2 -12 45 c-6 25 -11 46 -11 48 0 2 47 2 103 0 l104 -3 10 -44z m232 -27 c1 -16 -10 -18 -103 -18 l-104 0 -6 28 c-4 15 -9 35 -12 44 -5 15 6 18 98 20 l103 3 12 -30 c6 -16 12 -38 12 -47z m214 36 c19 -40 21 -54 7 -54 -5 0 -11 8 -11 18 -1 16 -2 16 -6 0 -4 -16 -17 -18 -93 -18 l-89 0 -9 33 c-6 17 -13 39 -16 47 -5 13 8 15 97 12 l104 -3 16 -35z m227 -1 c8 -21 16 -41 18 -45 2 -5 -46 -8 -106 -8 -105 0 -110 1 -115 23 -3 12 -9 32 -12 45 -7 22 -7 22 97 22 l104 0 14 -37z m228 10 c5 -16 13 -36 17 -45 7 -17 -2 -18 -102 -18 l-109 0 -14 38 c-8 20 -16 40 -18 45 -2 4 46 7 106 7 l110 0 10 -27z"/> <path d="M1808 1183 c6 -2 18 -2 25 0 6 3 1 5 -13 5 -14 0 -19 -2 -12 -5z"/> <path d="M2008 1183 c7 -3 16 -2 19 1 4 3 -2 6 -13 5 -11 0 -14 -3 -6 -6z"/> <path d="M2253 1183 c9 -2 23 -2 30 0 6 3 -1 5 -18 5 -16 0 -22 -2 -12 -5z"/> <path d="M3643 1183 c9 -2 23 -2 30 0 6 3 -1 5 -18 5 -16 0 -22 -2 -12 -5z"/> <path d="M696 1124 c-4 -10 -2 -13 7 -7 6 4 64 11 127 14 l115 5 -121 2 c-102 2 -123 -1 -128 -14z"/> <path d="M986 1123 c-6 -14 -5 -15 5 -6 7 7 10 15 7 18 -3 3 -9 -2 -12 -12z"/> <path d="M1030 1134 c35 -7 98 -9 94 -2 -3 5 -29 7 -57 7 -29 -1 -45 -3 -37 -5z"/> <path d="M1205 1129 c5 -6 55 0 55 7 0 3 -13 3 -29 2 -16 -1 -28 -5 -26 -9z"/> <path d="M1283 1133 c9 -2 25 -2 35 0 9 3 1 5 -18 5 -19 0 -27 -2 -17 -5z"/> <path d="M1340 1135 c0 -7 30 -13 34 -7 3 4 -4 9 -15 9 -10 1 -19 0 -19 -2z"/> <path d="M1420 1133 c0 -5 28 -7 62 -5 113 5 125 9 31 10 -51 1 -93 -1 -93 -5z"/> <path d="M1650 1130 c0 -5 5 -10 10 -10 6 0 10 5 10 10 0 6 -4 10 -10 10 -5 0 -10 -4 -10 -10z"/> <path d="M1705 1130 c3 -5 8 -10 11 -10 2 0 4 5 4 10 0 6 -5 10 -11 10 -5 0 -7 -4 -4 -10z"/> <path d="M1783 1133 c9 -2 25 -2 35 0 9 3 1 5 -18 5 -19 0 -27 -2 -17 -5z"/> <path d="M1879 1131 c12 -8 51 -4 51 5 0 2 -15 4 -32 4 -23 0 -29 -3 -19 -9z"/> <path d="M1945 1130 c3 -5 8 -10 11 -10 2 0 4 5 4 10 0 6 -5 10 -11 10 -5 0 -7 -4 -4 -10z"/> <path d="M1998 1133 c12 -2 30 -2 40 0 9 3 -1 5 -23 4 -22 0 -30 -2 -17 -4z"/> <path d="M2128 1133 c23 -2 59 -2 80 0 20 2 1 4 -43 4 -44 0 -61 -2 -37 -4z"/> <path d="M2363 1133 c26 -2 67 -2 90 0 23 2 2 3 -48 3 -49 0 -68 -1 -42 -3z"/> <path d="M2788 1133 c7 -3 16 -2 19 1 4 3 -2 6 -13 5 -11 0 -14 -3 -6 -6z"/> <path d="M2827 1133 c-3 -5 16 -7 41 -5 73 5 82 10 20 11 -31 0 -59 -2 -61 -6z"/> <path d="M3005 1130 c4 -6 11 -8 16 -5 14 9 11 15 -7 15 -8 0 -12 -5 -9 -10z"/> <path d="M3138 1133 c7 -3 16 -2 19 1 4 3 -2 6 -13 5 -11 0 -14 -3 -6 -6z"/> <path d="M3211 1136 c7 -7 159 -10 166 -3 3 4 -33 7 -82 7 -49 0 -86 -2 -84 -4z"/> <path d="M3430 1136 c7 -6 98 -11 105 -5 3 3 -21 7 -52 8 -32 1 -55 0 -53 -3z"/> <path d="M3550 1132 c0 -4 11 -8 24 -8 14 0 22 4 20 8 -3 4 -14 8 -25 8 -10 0 -19 -4 -19 -8z"/> <path d="M666 1054 c-4 -9 -4 -19 -1 -22 2 -3 7 2 10 11 5 13 30 15 148 16 77 1 143 4 146 6 2 3 -63 5 -146 5 -131 0 -152 -2 -157 -16z"/> <path d="M1037 1049 c-5 -19 -4 -19 11 -6 12 11 40 15 91 16 41 0 76 3 79 6 3 3 -35 5 -85 5 -84 0 -91 -2 -96 -21z"/> <path d="M1280 1066 c7 -6 169 -10 176 -4 2 3 -37 6 -88 7 -51 1 -90 0 -88 -3z"/> <path d="M1503 1064 c7 -7 169 -5 176 2 2 2 -38 4 -89 4 -51 0 -90 -3 -87 -6z"/> <path d="M1776 1062 c5 -5 41 -5 79 -2 l70 7 -79 1 c-44 1 -76 -2 -70 -6z"/> <path d="M1970 1063 c0 -5 30 -7 67 -5 119 5 131 9 31 10 -54 1 -98 -1 -98 -5z"/> <path d="M2213 1064 c7 -7 169 -5 176 2 2 2 -38 4 -89 4 -51 0 -90 -3 -87 -6z"/> <path d="M2478 1063 c28 -2 76 -2 105 0 28 2 5 3 -53 3 -58 0 -81 -1 -52 -3z"/> <path d="M2670 1062 c0 -8 90 -6 98 3 3 3 -18 5 -46 5 -29 0 -52 -4 -52 -8z"/> <path d="M2820 1060 c0 -5 7 -7 15 -4 8 4 15 8 15 10 0 2 -7 4 -15 4 -8 0 -15 -4 -15 -10z"/> <path d="M2938 1063 c23 -2 59 -2 80 0 20 2 1 4 -43 4 -44 0 -61 -2 -37 -4z"/> <path d="M3060 1065 c0 -2 9 -9 20 -15 16 -9 18 -8 14 5 -5 13 -34 22 -34 10z"/> <path d="M3213 1063 c48 -2 87 -8 87 -12 0 -5 7 -11 15 -15 12 -4 13 -2 2 14 -10 18 -22 20 -102 18 l-90 -2 88 -3z"/> <path d="M3361 1066 c8 -8 177 -11 185 -3 4 4 -37 7 -91 7 -54 0 -96 -2 -94 -4z"/> <path d="M3755 1063 c126 -3 152 -6 163 -20 13 -18 16 -14 6 11 -5 14 -28 16 -163 14 l-156 -2 150 -3z"/> <path d="M1141 972 c-17 -31 -13 -40 5 -14 9 13 14 26 11 29 -3 2 -10 -4 -16 -15z"/> <path d="M1213 983 c26 -2 67 -2 90 0 23 2 2 3 -48 3 -49 0 -68 -1 -42 -3z"/> <path d="M1393 983 c-7 -2 -13 -9 -13 -15 0 -6 6 -6 15 2 9 7 37 11 75 8 33 -1 60 0 60 5 0 8 -117 8 -137 0z"/> <path d="M1545 980 c3 -5 10 -10 16 -10 5 0 9 5 9 10 0 6 -7 10 -16 10 -8 0 -12 -4 -9 -10z"/> <path d="M1640 979 c0 -5 5 -7 10 -4 6 3 10 0 10 -7 0 -11 2 -10 9 0 5 9 24 13 54 11 26 -2 49 0 53 4 4 4 -25 7 -64 7 -44 0 -72 -4 -72 -11z"/> <path d="M1617 973 c-4 -3 -7 -13 -7 -22 1 -13 3 -13 11 2 11 19 8 33 -4 20z"/> <path d="M1850 964 c0 -12 3 -14 13 -6 7 6 53 13 103 15 l89 3 -102 2 c-89 2 -103 0 -103 -14z"/> <path d="M2148 973 c7 -3 16 -2 19 1 4 3 -2 6 -13 5 -11 0 -14 -3 -6 -6z"/> <path d="M2248 973 c7 -3 16 -2 19 1 4 3 -2 6 -13 5 -11 0 -14 -3 -6 -6z"/> <path d="M2640 980 l-85 -6 88 -2 c52 -1 87 2 87 8 0 6 -1 9 -2 8 -2 -1 -41 -5 -88 -8z"/> <path d="M2363 973 c26 -2 68 -2 95 0 26 2 4 3 -48 3 -52 0 -74 -1 -47 -3z"/> <path d="M2787 983 c-3 -5 34 -7 81 -5 73 3 88 1 99 -14 11 -15 13 -15 13 -2 0 9 -7 19 -16 22 -23 9 -172 7 -177 -1z"/> <path d="M3075 980 l-50 -7 45 0 c25 -1 56 3 70 7 31 10 8 10 -65 0z"/> <path d="M3353 983 c66 -3 87 -7 87 -18 0 -8 4 -17 10 -20 6 -4 7 2 1 17 -8 22 -14 23 -97 24 l-89 0 88 -3z"/> <path d="M3520 980 c0 -6 11 -8 28 -4 39 10 40 14 4 14 -18 0 -32 -5 -32 -10z"/> <path d="M3601 985 c1 -19 18 -51 18 -35 0 8 -4 22 -9 30 -5 8 -9 11 -9 5z"/> <path d="M3630 985 c0 -3 10 -16 21 -28 l21 -22 -11 22 c-11 22 -31 40 -31 28z"/> <path d="M3830 979 c-116 -6 -108 -10 24 -10 81 0 102 -4 113 -17 11 -14 12 -13 2 11 -13 28 -29 36 -29 15 0 -8 -3 -9 -8 -3 -4 6 -44 8 -102 4z"/> <path d="M3721 964 c0 -11 3 -14 6 -6 3 7 2 16 -1 19 -3 4 -6 -2 -5 -13z"/> <path d="M771 891 c-8 -6 -9 -11 -3 -15 6 -3 14 -1 17 5 9 14 2 20 -14 10z"/> <path d="M585 880 c3 -5 8 -10 11 -10 2 0 4 5 4 10 0 6 -5 10 -11 10 -5 0 -7 -4 -4 -10z"/> <path d="M641 886 c7 -8 98 -10 105 -3 4 4 -19 7 -51 7 -32 0 -56 -2 -54 -4z"/> <path d="M841 880 c8 -4 41 -4 74 0 l60 7 -74 0 c-40 0 -67 -3 -60 -7z"/> <path d="M827 856 c-4 -10 -1 -13 8 -9 8 3 12 9 9 14 -7 12 -11 11 -17 -5z"/> <path d="M1086 892 c-20 -4 -21 -19 -1 -19 8 0 15 3 15 6 0 3 39 5 87 5 49 -1 77 0 63 2 -39 5 -146 9 -164 6z"/> <path d="M1315 880 c-5 -8 116 -1 124 6 3 2 -23 4 -57 3 -35 -1 -65 -5 -67 -9z"/> <path d="M1473 883 c9 -2 23 -2 30 0 6 3 -1 5 -18 5 -16 0 -22 -2 -12 -5z"/> <path d="M1065 850 c-3 -5 -2 -10 4 -10 5 0 13 5 16 10 3 6 2 10 -4 10 -5 0 -13 -4 -16 -10z"/> <path d="M1590 883 c0 -5 293 -9 650 -11 447 -2 650 0 650 8 0 7 -205 10 -650 10 -357 0 -650 -3 -650 -7z"/> <path d="M2937 873 c4 -11 8 -12 13 -3 5 8 31 11 79 8 39 -2 71 0 71 5 0 4 -38 7 -84 6 -69 -1 -83 -4 -79 -16z"/> <path d="M3180 883 c0 -10 117 -9 126 0 4 4 -23 7 -59 7 -37 0 -67 -3 -67 -7z"/> <path d="M3301 857 c2 -2 11 -8 20 -15 12 -9 16 -9 16 1 0 7 -9 14 -20 14 -11 1 -18 1 -16 0z"/> <path d="M3382 885 c9 -10 66 -12 105 -5 32 6 26 8 -36 9 -41 0 -72 -1 -69 -4z"/> <path d="M3530 879 c0 -5 5 -7 12 -3 8 5 9 1 4 -12 -5 -14 -4 -16 5 -7 6 6 8 16 5 22 -9 14 -26 14 -26 0z"/> <path d="M3678 883 c63 -3 82 -7 82 -18 0 -8 10 -19 23 -25 20 -10 20 -10 5 3 -10 8 -18 22 -18 31 0 14 -12 16 -87 14 l-88 -2 83 -3z"/> <path d="M3918 881 c45 -3 82 -9 82 -13 0 -5 0 -13 0 -19 0 -5 4 -8 9 -5 5 3 7 15 4 26 -5 18 -13 20 -92 18 l-86 -2 83 -5z"/> <path d="M655 1191 c-3 -5 -2 -12 3 -15 5 -3 9 1 9 9 0 17 -3 19 -12 6z"/> <path d="M4232 875 c1 -10 9 -20 16 -21 7 -1 8 0 2 3 -5 2 -8 9 -5 13 3 5 0 12 -6 15 -7 5 -10 1 -7 -10z"/> <path d="M355 827 c-10 -18 -28 -52 -39 -77 -11 -25 -26 -51 -33 -58 -16 -16 -16 -22 -3 -22 6 0 21 23 33 50 13 29 27 48 34 46 7 -3 10 1 6 10 -3 9 4 28 16 44 11 16 17 31 13 34 -4 2 -16 -10 -27 -27z"/> <path d="M4250 833 c0 -7 6 -18 13 -25 8 -7 19 -27 25 -43 8 -23 11 -25 11 -9 1 11 -10 35 -24 54 -14 19 -25 29 -25 23z"/> <path d="M515 779 c-4 -6 -5 -12 -2 -15 2 -3 7 2 10 11 7 17 1 20 -8 4z"/> <path d="M1666 772 c-3 -5 -15 -62 -26 -128 -32 -182 -25 -167 -69 -160 -21 3 -182 8 -357 11 -175 3 -364 7 -419 10 -55 2 -114 1 -130 -4 -19 -5 77 -10 250 -15 333 -9 3091 -19 3084 -12 -3 3 -226 8 -496 10 -270 2 -495 6 -500 8 -18 10 -1334 7 -1359 -3 -23 -8 -25 -7 -20 8 4 9 10 36 13 60 3 24 10 43 15 43 5 0 6 5 3 10 -4 6 -1 42 6 80 l13 70 628 0 c412 0 628 3 628 10 0 12 -1256 14 -1264 2z"/> <path d="M2910 712 c0 -22 4 -43 9 -46 4 -3 11 -20 15 -37 3 -18 8 -30 10 -28 4 5 -23 141 -30 148 -2 2 -4 -14 -4 -37z"/> <path d="M4321 741 c-9 -6 -11 -15 -6 -27 5 -11 7 -23 6 -27 -1 -5 3 -6 9 -2 6 4 7 12 0 24 -6 12 -5 22 2 29 14 14 9 15 -11 3z"/> <path d="M229 708 c-5 -18 -6 -38 -1 -34 7 8 12 36 6 36 -2 0 -4 -1 -5 -2z"/> <path d="M2952 690 c0 -14 2 -19 5 -12 2 6 2 18 0 25 -3 6 -5 1 -5 -13z"/> <path d="M4340 676 c0 -6 24 -49 43 -78 10 -15 20 -33 22 -40 9 -37 18 -58 26 -58 13 0 11 28 -3 32 -6 2 -12 11 -13 19 -4 27 -75 145 -75 125z"/> <path d="M2961 644 c0 -11 3 -14 6 -6 3 7 2 16 -1 19 -3 4 -6 -2 -5 -13z"/> <path d="M2966 595 c8 -37 14 -45 14 -19 0 10 -5 26 -10 34 -8 11 -9 7 -4 -15z"/> <path d="M1978 603 c6 -2 18 -2 25 0 6 3 1 5 -13 5 -14 0 -19 -2 -12 -5z"/> <path d="M1707 583 c18 -2 50 -2 70 0 21 2 7 4 -32 4 -38 0 -55 -2 -38 -4z"/> <path d="M1863 583 c9 -2 25 -2 35 0 9 3 1 5 -18 5 -19 0 -27 -2 -17 -5z"/> <path d="M1928 583 c6 -2 18 -2 25 0 6 3 1 5 -13 5 -14 0 -19 -2 -12 -5z"/> <path d="M2038 583 c23 -2 59 -2 80 0 20 2 1 4 -43 4 -44 0 -61 -2 -37 -4z"/> <path d="M2178 583 c12 -2 32 -2 45 0 12 2 2 4 -23 4 -25 0 -35 -2 -22 -4z"/> <path d="M2930 570 c0 -11 5 -20 11 -20 5 0 8 -4 5 -9 -4 -5 -146 -10 -323 -10 -174 -1 -319 -4 -322 -6 -2 -3 145 -5 327 -5 321 0 332 1 332 19 0 26 -10 51 -21 51 -5 0 -9 -9 -9 -20z"/> <path d="M203 560 c-10 -15 -10 -22 3 -35 24 -23 40 -18 18 6 -14 16 -15 23 -6 26 6 3 12 9 12 14 0 15 -15 10 -27 -11z"/> <path d="M2311 564 c0 -11 3 -14 6 -6 3 7 2 16 -1 19 -3 4 -6 -2 -5 -13z"/> <path d="M1664 529 c-16 -4 118 -7 299 -8 180 0 327 2 327 7 0 9 -584 10 -626 1z"/> <path d="M290 509 c46 -8 277 -12 269 -5 -2 2 -74 6 -159 9 -91 2 -137 1 -110 -4z"/> <path d="M598 503 c7 -3 16 -2 19 1 4 3 -2 6 -13 5 -11 0 -14 -3 -6 -6z"/> <path d="M4405 490 c4 -6 -54 -11 -162 -12 l-168 -2 163 -3 c154 -3 219 4 178 20 -10 4 -15 3 -11 -3z"/> <path d="M4023 473 c9 -2 23 -2 30 0 6 3 -1 5 -18 5 -16 0 -22 -2 -12 -5z"/> <path d="M4460 449 c-10 -7 -398 -10 -1260 -8 -685 2 -1651 2 -2147 1 l-903 -2 0 -32 c0 -18 5 -40 10 -48 7 -11 10 -8 10 16 0 31 2 32 48 36 69 6 931 13 1047 8 33 -1 500 -1 1038 1 645 3 978 1 981 -6 3 -6 9 -3 15 5 9 13 14 13 31 2 11 -7 26 -10 32 -6 6 4 65 6 132 5 66 -1 292 -4 501 -6 209 -2 385 -4 391 -4 5 -1 9 -14 8 -31 -1 -16 2 -27 7 -24 5 3 9 20 9 39 0 27 3 32 18 28 10 -2 29 5 43 16 25 21 16 29 -11 10z"/> <path d="M1846 4032 c-3 -5 1 -9 9 -9 8 0 12 4 9 9 -3 4 -7 8 -9 8 -2 0 -6 -4 -9 -8z"/> <path d="M359 1143 c-13 -16 -12 -17 4 -4 9 7 17 15 17 17 0 8 -8 3 -21 -13z"/> <path d="M4485 300 c-3 -6 1 -7 9 -4 18 7 21 14 7 14 -6 0 -13 -4 -16 -10z"/> </g> </svg>
<text x="450" y="30" fill="#24292f">
<tspan x="450" y="30">yoezequiel</tspan> -————————————————————————————————————————————-—-
<tspan x="450" y="50" class="cc">. </tspan><tspan class="key">OS</tspan>:<tspan x="700" class="value">Omarchy 3.8.2, Linux</tspan>
<tspan x="450" y="70" class="cc">. </tspan><tspan class="key">Uptime</tspan>:<tspan x="700" class="value" id="age_data">4 years, 3 months, 2 days</tspan>
<tspan x="450" y="90" class="cc">. </tspan><tspan class="key">Host</tspan>:<tspan x="700" class="value">CROBF</tspan>
<tspan x="450" y="110" class="cc">. </tspan><tspan class="key">Kernel</tspan>:<tspan x="700" class="value">Fullstack develper</tspan>
<tspan x="450" y="130" class="cc">. </tspan><tspan class="key">IDE</tspan>:<tspan x="700" class="value">vscode</tspan>
<tspan x="450" y="150" class="cc">. </tspan>
<tspan x="450" y="170" class="cc">. </tspan><tspan class="key">Programming</tspan>:<tspan x="700" class="value">JS, Kotlin, Python, Java, SQL</tspan>
<tspan x="450" y="190" class="cc">. </tspan><tspan class="key">Frontend</tspan>:<tspan x="700" class="value">HTML, CSS, React/RN, Astro, Tailwind, Expo</tspan>
<tspan x="450" y="210" class="cc">. </tspan><tspan class="key">Backend</tspan>:<tspan x="700" class="value">Node.js, Express, Flask, Django</tspan>
<tspan x="450" y="230" class="cc">. </tspan><tspan class="key">DevOps</tspan>:<tspan x="700" class="value">Docker, Linux, VPS, n8n</tspan>
<tspan x="450" y="250" class="cc">. </tspan>
<tspan x="450" y="270" class="cc">. </tspan><tspan class="key">Hobbies</tspan>:<tspan x="700" class="value">gaming, programar</tspan>
<tspan x="450" y="310">- Contact</tspan> -——————————————————————————————————————————————-—-
<tspan x="450" y="330" class="cc">. </tspan><tspan class="key">Email</tspan>:<a href="mailto:ezequielcasiano15@gmail.com" target="_blank"><tspan x="700" class="value">ezequielcasiano15@gmail.com</tspan></a>
<tspan x="450" y="350" class="cc">. </tspan><tspan class="key">LinkedIn</tspan>:<a href="https://linkedin.com/in/yoezequiel" target="_blank"><tspan x="700" class="value">yoezequiel</tspan></a>
<tspan x="450" y="370" class="cc">. </tspan><tspan class="key">Discord</tspan>:<a href="https://discord.com/users/yoezequiel" target="_blank"><tspan x="700" class="value">yoezequiel</tspan></a>
<tspan x="450" y="390" class="cc">. </tspan><tspan class="key">Portfolio</tspan>:<a href="https://yoezequiel.dev" target="_blank"><tspan x="700" class="value">yoezequiel.dev</tspan></a>
<tspan x="450" y="450">- GitHub Stats</tspan> -—————————————————————————————————————————-—-
<tspan x="450" y="470" class="cc">. </tspan><tspan class="key">Repos</tspan>:<tspan x="700" class="value" id="repo_data">45</tspan> {<tspan class="key">Contributed</tspan>: <tspan class="value" id="contrib_data">72</tspan>} | <tspan class="key">Stars</tspan>: <tspan class="value" id="star_data">2</tspan>
<tspan x="450" y="490" class="cc">. </tspan><tspan class="key">Commmits</tspan>:<tspan x="700" class="value" id="commit_data">2,790</tspan> | <tspan class="key">Followers</tspan>: <tspan class="value" id="follower_data">11</tspan>
<tspan x="450" y="510" class="cc">. </tspan><tspan class="key">Lines of Code on GitHub</tspan>:<tspan x="700" class="value" id="loc_data">4,262,275</tspan> ( <tspan class="addColor" id="loc_add">5,693,996</tspan><tspan class="addColor">++</tspan>, <tspan class="delColor" id="loc_del">1,431,721</tspan><tspan class="delColor">--</tspan> )
<tspan x="450" y="530" class="cc">. </tspan><tspan class="value cursor">_</tspan>
</text>
</svg>